<svg xmlns="http://www.w3.org/2000/svg" width="900" height="800" font-family="sans-serif" font-size="12">
<rect width="900" height="800" fill="white"/>
<text x="10" y="20" font-size="14" font-weight="bold">PFS hazard ratio: ARM4 vs ARM8</text>
<text x="10" y="44" fill="#555">Subgroup (n)</text>
<text x="810" y="44" fill="#555">Estimate (95% CI)</text>
<line x1="617.3" y1="50" x2="617.3" y2="770" stroke="#999" stroke-dasharray="4,3"/>
<text x="10" y="66">each  dose/expansion  cohort: Panobinostat 10 mg/Everolimu</text>
<line x1="485.8" y1="62" x2="616.8" y2="62" stroke="#1f4e79" stroke-width="1.5"/>
<rect x="547.3" y="58" width="8" height="8" fill="#1f4e79"/>
<text x="810" y="66">0.37 (0.14, 0.99)</text>
<text x="10" y="86">    Panobinostat 20 mg/Everolimus 10 mg (17)</text>
<line x1="565.2" y1="82" x2="712.7" y2="82" stroke="#1f4e79" stroke-width="1.5"/>
<rect x="634.9" y="78" width="8" height="8" fill="#1f4e79"/>
<text x="810" y="86">1.39 (0.45, 4.28)</text>
<text x="10" y="106">    Panobinostat 20 mg/Everolimus 5 mg (15)</text>
<line x1="587.9" y1="102" x2="745.4" y2="102" stroke="#1f4e79" stroke-width="1.5"/>
<rect x="662.6" y="98" width="8" height="8" fill="#1f4e79"/>
<text x="810" y="106">2.12 (0.64, 7.04)</text>
<text x="10" y="126">    Panobinostat 30 mg/Everolimus 10 mg (32)</text>
<line x1="577.3" y1="122" x2="679.6" y2="122" stroke="#1f4e79" stroke-width="1.5"/>
<rect x="624.4" y="118" width="8" height="8" fill="#1f4e79"/>
<text x="810" y="126">1.19 (0.54, 2.58)</text>
<text x="10" y="146">tumor  type/population: Disease Population Group 1 (27)</text>
<line x1="531.3" y1="142" x2="663.4" y2="142" stroke="#1f4e79" stroke-width="1.5"/>
<rect x="593.3" y="138" width="8" height="8" fill="#1f4e79"/>
<text x="810" y="146">0.74 (0.27, 2.02)</text>
<text x="10" y="166">    Disease Population Group 2 (35)</text>
<line x1="558.3" y1="162" x2="653.5" y2="162" stroke="#1f4e79" stroke-width="1.5"/>
<rect x="601.9" y="158" width="8" height="8" fill="#1f4e79"/>
<text x="810" y="166">0.84 (0.41, 1.74)</text>
<text x="10" y="186">    Disease Population Group 3 (28)</text>
<line x1="562.6" y1="182" x2="669.8" y2="182" stroke="#1f4e79" stroke-width="1.5"/>
<rect x="612.2" y="178" width="8" height="8" fill="#1f4e79"/>
<text x="810" y="186">0.98 (0.43, 2.23)</text>
<text x="10" y="206">prior  treatment  cohort: No (51)</text>
<line x1="559.2" y1="202" x2="640.2" y2="202" stroke="#1f4e79" stroke-width="1.5"/>
<rect x="595.8" y="198" width="8" height="8" fill="#1f4e79"/>
<text x="810" y="206">0.77 (0.41, 1.42)</text>
<text x="10" y="226">    Yes (39)</text>
<line x1="574.9" y1="222" x2="671.7" y2="222" stroke="#1f4e79" stroke-width="1.5"/>
<rect x="619.2" y="218" width="8" height="8" fill="#1f4e79"/>
<text x="810" y="226">1.09 (0.52, 2.29)</text>
<text x="10" y="246">genomic  alterations: Rearrangements of Ig / TCR genes &amp; t</text>
<line x1="577.0" y1="242" x2="693.9" y2="242" stroke="#1f4e79" stroke-width="1.5"/>
<rect x="631.4" y="238" width="8" height="8" fill="#1f4e79"/>
<text x="810" y="246">1.32 (0.54, 3.21)</text>
<text x="10" y="266">    Rearrangements of Ig / TCR genes only (22)</text>
<line x1="549.5" y1="262" x2="670.3" y2="262" stroke="#1f4e79" stroke-width="1.5"/>
<rect x="605.9" y="258" width="8" height="8" fill="#1f4e79"/>
<text x="810" y="266">0.89 (0.36, 2.24)</text>
<text x="10" y="286">    bcr/abl translocation above detection limit (21)</text>
<line x1="475.9" y1="282" x2="625.9" y2="282" stroke="#1f4e79" stroke-width="1.5"/>
<rect x="547.0" y="278" width="8" height="8" fill="#1f4e79"/>
<text x="810" y="286">0.36 (0.12, 1.14)</text>
<text x="10" y="306">    t(4;11) translocation above detection limit (23)</text>
<line x1="568.3" y1="302" x2="689.2" y2="302" stroke="#1f4e79" stroke-width="1.5"/>
<rect x="624.8" y="298" width="8" height="8" fill="#1f4e79"/>
<text x="810" y="306">1.19 (0.47, 2.99)</text>
<text x="10" y="326">presence  of  baseline  CNS  metas: No (53)</text>
<line x1="569.9" y1="322" x2="647.1" y2="322" stroke="#1f4e79" stroke-width="1.5"/>
<rect x="604.5" y="318" width="8" height="8" fill="#1f4e79"/>
<text x="810" y="326">0.88 (0.49, 1.57)</text>
<text x="10" y="346">    Yes (37)</text>
<line x1="546.7" y1="342" x2="654.4" y2="342" stroke="#1f4e79" stroke-width="1.5"/>
<rect x="596.6" y="338" width="8" height="8" fill="#1f4e79"/>
<text x="810" y="346">0.78 (0.34, 1.76)</text>
<text x="10" y="366">ALK-positive: Negative (48)</text>
<line x1="542.3" y1="362" x2="631.5" y2="362" stroke="#1f4e79" stroke-width="1.5"/>
<rect x="583.0" y="358" width="8" height="8" fill="#1f4e79"/>
<text x="810" y="366">0.63 (0.32, 1.24)</text>
<text x="10" y="386">    Positive (42)</text>
<line x1="594.2" y1="382" x2="680.3" y2="382" stroke="#1f4e79" stroke-width="1.5"/>
<rect x="633.2" y="378" width="8" height="8" fill="#1f4e79"/>
<text x="810" y="386">1.35 (0.70, 2.61)</text>
<text x="10" y="406">ALK-negative: Negative (40)</text>
<line x1="561.1" y1="402" x2="650.4" y2="402" stroke="#1f4e79" stroke-width="1.5"/>
<rect x="601.8" y="398" width="8" height="8" fill="#1f4e79"/>
<text x="810" y="406">0.84 (0.42, 1.66)</text>
<text x="10" y="426">    Positive (50)</text>
<line x1="569.5" y1="422" x2="656.1" y2="422" stroke="#1f4e79" stroke-width="1.5"/>
<rect x="608.7" y="418" width="8" height="8" fill="#1f4e79"/>
<text x="810" y="426">0.93 (0.48, 1.81)</text>
<text x="10" y="446">central  testing  for  ALK  will  : No (39)</text>
<line x1="512.0" y1="442" x2="624.2" y2="442" stroke="#1f4e79" stroke-width="1.5"/>
<rect x="564.1" y="438" width="8" height="8" fill="#1f4e79"/>
<text x="810" y="446">0.47 (0.20, 1.11)</text>
<text x="10" y="466">    Yes (51)</text>
<line x1="594.7" y1="462" x2="672.5" y2="462" stroke="#1f4e79" stroke-width="1.5"/>
<rect x="629.6" y="458" width="8" height="8" fill="#1f4e79"/>
<text x="810" y="466">1.28 (0.71, 2.32)</text>
<text x="10" y="486">Age (FDA standard age bands): 65-74 years (16)</text>
<line x1="570.7" y1="482" x2="711.7" y2="482" stroke="#1f4e79" stroke-width="1.5"/>
<rect x="637.2" y="478" width="8" height="8" fill="#1f4e79"/>
<text x="810" y="486">1.44 (0.49, 4.21)</text>
<text x="10" y="506">    &lt; 65 years (67)</text>
<line x1="566.5" y1="502" x2="638.2" y2="502" stroke="#1f4e79" stroke-width="1.5"/>
<rect x="598.3" y="498" width="8" height="8" fill="#1f4e79"/>
<text x="810" y="506">0.80 (0.46, 1.38)</text>
<text x="10" y="526">    &gt;= 75 years (7)</text>
<line x1="526.6" y1="522" x2="780.9" y2="522" stroke="#1f4e79" stroke-width="1.5"/>
<rect x="649.8" y="518" width="8" height="8" fill="#1f4e79"/>
<text x="810" y="526">1.74 (0.25, 12.10)</text>
<text x="10" y="546">Sex: female (44)</text>
<line x1="596.4" y1="542" x2="678.6" y2="542" stroke="#1f4e79" stroke-width="1.5"/>
<rect x="633.5" y="538" width="8" height="8" fill="#1f4e79"/>
<text x="810" y="546">1.36 (0.73, 2.55)</text>
<text x="10" y="566">    male (46)</text>
<line x1="532.1" y1="562" x2="626.5" y2="562" stroke="#1f4e79" stroke-width="1.5"/>
<rect x="575.2" y="558" width="8" height="8" fill="#1f4e79"/>
<text x="810" y="566">0.56 (0.27, 1.15)</text>
<text x="10" y="586">Race: asian (12)</text>
<line x1="506.5" y1="582" x2="680.2" y2="582" stroke="#1f4e79" stroke-width="1.5"/>
<rect x="589.3" y="578" width="8" height="8" fill="#1f4e79"/>
<text x="810" y="586">0.69 (0.18, 2.61)</text>
<text x="10" y="606">    black_or_african_american (10)</text>
<line x1="399.1" y1="602" x2="658.5" y2="602" stroke="#1f4e79" stroke-width="1.5"/>
<rect x="525.1" y="598" width="8" height="8" fill="#1f4e79"/>
<text x="810" y="606">0.26 (0.04, 1.87)</text>
<text x="10" y="626">    white (64)</text>
<line x1="592.0" y1="622" x2="662.6" y2="622" stroke="#1f4e79" stroke-width="1.5"/>
<rect x="623.3" y="618" width="8" height="8" fill="#1f4e79"/>
<text x="810" y="626">1.16 (0.68, 1.99)</text>
<text x="10" y="646">Ethnicity: hispanic_or_latino (6)</text>
<line x1="490.1" y1="642" x2="740.5" y2="642" stroke="#1f4e79" stroke-width="1.5"/>
<rect x="611.2" y="638" width="8" height="8" fill="#1f4e79"/>
<text x="810" y="646">0.97 (0.14, 6.54)</text>
<text x="10" y="666">    not_hispanic_or_latino (80)</text>
<line x1="573.2" y1="662" x2="639.9" y2="662" stroke="#1f4e79" stroke-width="1.5"/>
<rect x="602.6" y="658" width="8" height="8" fill="#1f4e79"/>
<text x="810" y="666">0.85 (0.51, 1.41)</text>
<text x="10" y="686">    unknown_or_not_reported (4)</text>
<line x1="450.7" y1="682" x2="767.4" y2="682" stroke="#1f4e79" stroke-width="1.5"/>
<rect x="605.0" y="678" width="8" height="8" fill="#1f4e79"/>
<text x="810" y="686">0.88 (0.08, 9.84)</text>
<text x="10" y="706">Ecog performance status: 0 (32)</text>
<line x1="554.1" y1="702" x2="663.2" y2="702" stroke="#1f4e79" stroke-width="1.5"/>
<rect x="604.7" y="698" width="8" height="8" fill="#1f4e79"/>
<text x="810" y="706">0.88 (0.38, 2.01)</text>
<text x="10" y="726">    1 (52)</text>
<line x1="565.6" y1="722" x2="647.6" y2="722" stroke="#1f4e79" stroke-width="1.5"/>
<rect x="602.6" y="718" width="8" height="8" fill="#1f4e79"/>
<text x="810" y="726">0.85 (0.46, 1.59)</text>
<text x="10" y="746">    2 or more (6)</text>
<line x1="453.9" y1="742" x2="713.6" y2="742" stroke="#1f4e79" stroke-width="1.5"/>
<rect x="579.9" y="738" width="8" height="8" fill="#1f4e79"/>
<text x="810" y="746">0.60 (0.08, 4.34)</text>
<text x="617.3" y="788" text-anchor="middle" fill="#555">favours arm <- 1 -> favours control</text></svg>