<svg xmlns="http://www.w3.org/2000/svg" width="900" height="440" font-family="sans-serif" font-size="12">
<rect width="900" height="440" fill="white"/>
<text x="10" y="20" font-size="14" font-weight="bold">OS hazard ratio: ARM4 vs ARM3</text>
<text x="10" y="44" fill="#555">Subgroup (n)</text>
<text x="810" y="44" fill="#555">Estimate (95% CI)</text>
<line x1="604.7" y1="50" x2="604.7" y2="410" stroke="#999" stroke-dasharray="4,3"/>
<text x="10" y="66">Carboplatin-eligible versus not el: not eligible (33)</text>
<line x1="467.6" y1="62" x2="637.1" y2="62" stroke="#1f4e79" stroke-width="1.5"/>
<rect x="548.1" y="58" width="8" height="8" fill="#1f4e79"/>
<text x="810" y="66">0.17 (0.01, 2.97)</text>
<text x="10" y="86">    not recorded (150)</text>
<line x1="447.0" y1="82" x2="653.6" y2="82" stroke="#1f4e79" stroke-width="1.5"/>
<rect x="547.4" y="78" width="8" height="8" fill="#1f4e79"/>
<text x="810" y="86">0.17 (0.01, 5.17)</text>
<text x="10" y="106">PD-L1 CPS ≥ 10 versus PD-L1 CPS &lt; : PD-L1 CPS &lt; 10 (123)</text>
<line x1="488.3" y1="102" x2="631.2" y2="102" stroke="#1f4e79" stroke-width="1.5"/>
<rect x="555.4" y="98" width="8" height="8" fill="#1f4e79"/>
<text x="810" y="106">0.22 (0.02, 2.43)</text>
<text x="10" y="126">    not recorded (60)</text>
<line x1="431.8" y1="122" x2="661.8" y2="122" stroke="#1f4e79" stroke-width="1.5"/>
<rect x="541.1" y="118" width="8" height="8" fill="#1f4e79"/>
<text x="810" y="126">0.14 (0.00, 6.82)</text>
<text x="10" y="146">LN-only disease versus other metas: LN-only disease (95)</text>
<line x1="419.7" y1="142" x2="599.9" y2="142" stroke="#1f4e79" stroke-width="1.5"/>
<rect x="507.0" y="138" width="8" height="8" fill="#1f4e79"/>
<text x="810" y="146">0.04 (0.00, 0.85)</text>
<text x="10" y="166">    other metastatic disease (88)</text>
<line x1="483.4" y1="162" x2="665.6" y2="162" stroke="#1f4e79" stroke-width="1.5"/>
<rect x="570.5" y="158" width="8" height="8" fill="#1f4e79"/>
<text x="810" y="166">0.36 (0.02, 7.73)</text>
<text x="10" y="186">Randomisation stratum: Carboplatin-eligible; PD-L1 CPS &lt; 1</text>
<line x1="547.6" y1="182" x2="780.9" y2="182" stroke="#1f4e79" stroke-width="1.5"/>
<rect x="660.2" y="178" width="8" height="8" fill="#1f4e79"/>
<text x="810" y="186">7.39 (0.15, 372.41)</text>
<text x="10" y="206">    not eligible; PD-L1 CPS &lt; 10; other metastatic disease</text>
<line x1="467.6" y1="202" x2="637.1" y2="202" stroke="#1f4e79" stroke-width="1.5"/>
<rect x="548.1" y="198" width="8" height="8" fill="#1f4e79"/>
<text x="810" y="206">0.17 (0.01, 2.97)</text>
<text x="10" y="226">Age (FDA standard age bands): &lt; 65 years (104)</text>
<line x1="447.0" y1="222" x2="616.1" y2="222" stroke="#1f4e79" stroke-width="1.5"/>
<rect x="527.3" y="218" width="8" height="8" fill="#1f4e79"/>
<text x="810" y="226">0.09 (0.01, 1.47)</text>
<text x="10" y="246">    &gt;= 75 years (33)</text>
<line x1="515.5" y1="242" x2="682.0" y2="242" stroke="#1f4e79" stroke-width="1.5"/>
<rect x="594.6" y="238" width="8" height="8" fill="#1f4e79"/>
<text x="810" y="246">0.81 (0.05, 13.41)</text>
<text x="10" y="266">Sex: female (50)</text>
<line x1="431.8" y1="262" x2="661.8" y2="262" stroke="#1f4e79" stroke-width="1.5"/>
<rect x="541.1" y="258" width="8" height="8" fill="#1f4e79"/>
<text x="810" y="266">0.14 (0.00, 6.82)</text>
<text x="10" y="286">    male (133)</text>
<line x1="473.1" y1="282" x2="624.1" y2="282" stroke="#1f4e79" stroke-width="1.5"/>
<rect x="544.4" y="278" width="8" height="8" fill="#1f4e79"/>
<text x="810" y="286">0.15 (0.01, 1.92)</text>
<text x="10" y="306">Race: white (144)</text>
<line x1="496.1" y1="302" x2="619.0" y2="302" stroke="#1f4e79" stroke-width="1.5"/>
<rect x="553.5" y="298" width="8" height="8" fill="#1f4e79"/>
<text x="810" y="306">0.20 (0.03, 1.62)</text>
<text x="10" y="326">Ethnicity: not_hispanic_or_latino (166)</text>
<line x1="486.7" y1="322" x2="611.8" y2="322" stroke="#1f4e79" stroke-width="1.5"/>
<rect x="544.8" y="318" width="8" height="8" fill="#1f4e79"/>
<text x="810" y="326">0.15 (0.02, 1.27)</text>
<text x="10" y="346">ECOG performance status: 0 (88)</text>
<line x1="399.1" y1="342" x2="620.4" y2="342" stroke="#1f4e79" stroke-width="1.5"/>
<rect x="481.1" y="338" width="8" height="8" fill="#1f4e79"/>
<text x="810" y="346">0.02 (0.00, 1.69)</text>
<text x="10" y="366">    1 (75)</text>
<line x1="501.3" y1="362" x2="673.3" y2="362" stroke="#1f4e79" stroke-width="1.5"/>
<rect x="583.5" y="358" width="8" height="8" fill="#1f4e79"/>
<text x="810" y="366">0.56 (0.03, 10.03)</text>
<text x="10" y="386">    2 or more (20)</text>
<line x1="431.8" y1="382" x2="661.8" y2="382" stroke="#1f4e79" stroke-width="1.5"/>
<rect x="541.1" y="378" width="8" height="8" fill="#1f4e79"/>
<text x="810" y="386">0.14 (0.00, 6.82)</text>
<text x="604.7" y="428" text-anchor="middle" fill="#555">favours arm <- 1 -> favours control</text></svg>