<svg xmlns="http://www.w3.org/2000/svg" width="900" height="520" font-family="sans-serif" font-size="12">
<rect width="900" height="520" fill="white"/>
<text x="10" y="20" font-size="14" font-weight="bold">ORR difference: ARM1 vs ARM3</text>
<text x="10" y="44" fill="#555">Subgroup (n)</text>
<text x="810" y="44" fill="#555">Estimate (95% CI)</text>
<line x1="582.7" y1="50" x2="582.7" y2="490" stroke="#999" stroke-dasharray="4,3"/>
<text x="10" y="66">Carboplatin-eligible versus not el: not eligible (30)</text>
<line x1="550.6" y1="62" x2="780.9" y2="62" stroke="#1f4e79" stroke-width="1.5"/>
<rect x="661.8" y="58" width="8" height="8" fill="#1f4e79"/>
<text x="810" y="66">50% (-19%, 119%)</text>
<text x="10" y="86">    not recorded (164)</text>
<line x1="503.5" y1="82" x2="669.4" y2="82" stroke="#1f4e79" stroke-width="1.5"/>
<rect x="582.5" y="78" width="8" height="8" fill="#1f4e79"/>
<text x="810" y="86">2% (-48%, 52%)</text>
<text x="10" y="106">PD-L1 CPS ≥ 10 versus PD-L1 CPS &lt; : PD-L1 CPS &lt; 10 (134)</text>
<line x1="574.5" y1="102" x2="664.7" y2="102" stroke="#1f4e79" stroke-width="1.5"/>
<rect x="615.6" y="98" width="8" height="8" fill="#1f4e79"/>
<text x="810" y="106">22% (-5%, 49%)</text>
<text x="10" y="126">    not recorded (60)</text>
<line x1="441.7" y1="122" x2="723.7" y2="122" stroke="#1f4e79" stroke-width="1.5"/>
<rect x="578.7" y="118" width="8" height="8" fill="#1f4e79"/>
<text x="810" y="126">0% (-85%, 85%)</text>
<text x="10" y="146">LN-only disease versus other metas: LN-only disease (95)</text>
<line x1="611.0" y1="142" x2="753.7" y2="142" stroke="#1f4e79" stroke-width="1.5"/>
<rect x="678.4" y="138" width="8" height="8" fill="#1f4e79"/>
<text x="810" y="146">60% (17%, 103%)</text>
<text x="10" y="166">    other metastatic disease (99)</text>
<line x1="399.1" y1="162" x2="641.7" y2="162" stroke="#1f4e79" stroke-width="1.5"/>
<rect x="516.4" y="158" width="8" height="8" fill="#1f4e79"/>
<text x="810" y="166">-38% (-110%, 35%)</text>
<text x="10" y="186">Randomisation stratum: Carboplatin-eligible versus not eli</text>
<line x1="593.0" y1="182" x2="714.8" y2="182" stroke="#1f4e79" stroke-width="1.5"/>
<rect x="649.9" y="178" width="8" height="8" fill="#1f4e79"/>
<text x="810" y="186">43% (6%, 80%)</text>
<text x="10" y="206">    Carboplatin-eligible; PD-L1 CPS &lt; 10; other metastatic</text>
<line x1="582.7" y1="202" x2="582.7" y2="202" stroke="#1f4e79" stroke-width="1.5"/>
<rect x="578.7" y="198" width="8" height="8" fill="#1f4e79"/>
<text x="810" y="206">0% (0%, 0%)</text>
<text x="10" y="226">    Carboplatin-eligible; PD-L1 CPS ≥ 10; LN-only disease </text>
<line x1="582.7" y1="222" x2="582.7" y2="222" stroke="#1f4e79" stroke-width="1.5"/>
<rect x="578.7" y="218" width="8" height="8" fill="#1f4e79"/>
<text x="810" y="226">0% (0%, 0%)</text>
<text x="10" y="246">    not eligible; PD-L1 CPS &lt; 10; other metastatic disease</text>
<line x1="409.7" y1="242" x2="700.3" y2="242" stroke="#1f4e79" stroke-width="1.5"/>
<rect x="551.0" y="238" width="8" height="8" fill="#1f4e79"/>
<text x="810" y="246">-17% (-104%, 71%)</text>
<text x="10" y="266">Age (FDA standard age bands): 65-74 years (57)</text>
<line x1="557.7" y1="262" x2="674.2" y2="262" stroke="#1f4e79" stroke-width="1.5"/>
<rect x="611.9" y="258" width="8" height="8" fill="#1f4e79"/>
<text x="810" y="266">20% (-15%, 55%)</text>
<text x="10" y="286">    &lt; 65 years (109)</text>
<line x1="440.5" y1="282" x2="701.1" y2="282" stroke="#1f4e79" stroke-width="1.5"/>
<rect x="566.8" y="278" width="8" height="8" fill="#1f4e79"/>
<text x="810" y="286">-7% (-86%, 71%)</text>
<text x="10" y="306">    &gt;= 75 years (28)</text>
<line x1="582.7" y1="302" x2="582.7" y2="302" stroke="#1f4e79" stroke-width="1.5"/>
<rect x="578.7" y="298" width="8" height="8" fill="#1f4e79"/>
<text x="810" y="306">0% (0%, 0%)</text>
<text x="10" y="326">Sex: female (50)</text>
<line x1="549.4" y1="322" x2="726.7" y2="322" stroke="#1f4e79" stroke-width="1.5"/>
<rect x="634.1" y="318" width="8" height="8" fill="#1f4e79"/>
<text x="810" y="326">33% (-20%, 87%)</text>
<text x="10" y="346">    male (144)</text>
<line x1="524.3" y1="342" x2="674.3" y2="342" stroke="#1f4e79" stroke-width="1.5"/>
<rect x="595.3" y="338" width="8" height="8" fill="#1f4e79"/>
<text x="810" y="346">10% (-35%, 55%)</text>
<text x="10" y="366">Race: black_or_african_american (16)</text>
<line x1="748.8" y1="362" x2="748.8" y2="362" stroke="#1f4e79" stroke-width="1.5"/>
<rect x="744.8" y="358" width="8" height="8" fill="#1f4e79"/>
<text x="810" y="366">100% (100%, 100%)</text>
<text x="10" y="386">    white (162)</text>
<line x1="521.9" y1="382" x2="667.6" y2="382" stroke="#1f4e79" stroke-width="1.5"/>
<rect x="590.8" y="378" width="8" height="8" fill="#1f4e79"/>
<text x="810" y="386">7% (-37%, 51%)</text>
<text x="10" y="406">Ethnicity: not_hispanic_or_latino (171)</text>
<line x1="543.9" y1="402" x2="676.8" y2="402" stroke="#1f4e79" stroke-width="1.5"/>
<rect x="606.4" y="398" width="8" height="8" fill="#1f4e79"/>
<text x="810" y="406">17% (-23%, 57%)</text>
<text x="10" y="426">ECOG performance status: 0 (89)</text>
<line x1="560.8" y1="422" x2="659.9" y2="422" stroke="#1f4e79" stroke-width="1.5"/>
<rect x="606.4" y="418" width="8" height="8" fill="#1f4e79"/>
<text x="810" y="426">17% (-13%, 46%)</text>
<text x="10" y="446">    1 (82)</text>
<line x1="499.6" y1="442" x2="721.2" y2="442" stroke="#1f4e79" stroke-width="1.5"/>
<rect x="606.4" y="438" width="8" height="8" fill="#1f4e79"/>
<text x="810" y="446">17% (-50%, 83%)</text>
<text x="10" y="466">    2 or more (23)</text>
<line x1="582.7" y1="462" x2="582.7" y2="462" stroke="#1f4e79" stroke-width="1.5"/>
<rect x="578.7" y="458" width="8" height="8" fill="#1f4e79"/>
<text x="810" y="466">0% (0%, 0%)</text>
<text x="582.7" y="508" text-anchor="middle" fill="#555">favours control <- 0 -> favours arm</text></svg>