<?xml version="1.0" encoding="utf-8" standalone="no"?>
<!DOCTYPE svg PUBLIC "-//W3C//DTD SVG 1.1//EN"
  "http://www.w3.org/Graphics/SVG/1.1/DTD/svg11.dtd">
<svg xmlns:xlink="http://www.w3.org/1999/xlink" width="959.76pt" height="540pt" viewBox="0 0 959.76 540" xmlns="http://www.w3.org/2000/svg" version="1.1">
 <metadata>
  <rdf:RDF xmlns:dc="http://purl.org/dc/elements/1.1/" xmlns:cc="http://creativecommons.org/ns#" xmlns:rdf="http://www.w3.org/1999/02/22-rdf-syntax-ns#">
   <cc:Work>
    <dc:type rdf:resource="http://purl.org/dc/dcmitype/StillImage"/>
    <dc:date>2026-10-09T20:51:22.710409</dc:date>
    <dc:format>image/svg+xml</dc:format>
    <dc:creator>
     <cc:Agent>
      <dc:title>Matplotlib v3.11.2, https://matplotlib.org/</dc:title>
     </cc:Agent>
    </dc:creator>
   </cc:Work>
  </rdf:RDF>
 </metadata>
 <defs>
  <style type="text/css">*{stroke-linejoin: round; stroke-linecap: butt}</style>
 </defs>
 <g id="figure_1">
  <g id="patch_1">
   <path d="M 0 540 
L 959.76 540 
L 959.76 0 
L 0 0 
z
" style="fill: #ffffff"/>
  </g>
  <g id="axes_1">
   <g id="patch_2">
    <path d="M 46.836288 222.3 
L 139.631369 222.3 
Q 149.941934 222.3 149.941934 215.1 
L 149.941934 162.9 
Q 149.941934 155.7 139.631369 155.7 
L 46.836288 155.7 
Q 36.525723 155.7 36.525723 162.9 
L 36.525723 215.1 
Q 36.525723 222.3 46.836288 222.3 
z
" clip-path="url(#p4d358ecd04)" style="fill: #bdbdbd"/>
   </g>
   <g id="patch_3">
    <path d="M 151.939983 189 
Q 162.829207 189 172.153184 189 
" clip-path="url(#p4d358ecd04)" style="fill: none; stroke: #6b6b6b; stroke-width: 1.4; stroke-linecap: round"/>
    <path d="M 165.753184 185.8 
L 172.153184 189 
L 165.753184 192.2 
z
" clip-path="url(#p4d358ecd04)" style="fill: #6b6b6b; stroke: #6b6b6b; stroke-width: 1.4; stroke-linecap: round"/>
   </g>
   <g id="patch_4">
    <path d="M 175.718345 222.3 
L 268.513426 222.3 
Q 278.823991 222.3 278.823991 215.1 
L 278.823991 162.9 
Q 278.823991 155.7 268.513426 155.7 
L 175.718345 155.7 
Q 165.407781 155.7 165.407781 162.9 
L 165.407781 215.1 
Q 165.407781 222.3 175.718345 222.3 
z
" clip-path="url(#p4d358ecd04)" style="fill: #bdbdbd"/>
   </g>
   <g id="patch_5">
    <path d="M 280.82204 189 
Q 291.711265 189 301.035241 189 
" clip-path="url(#p4d358ecd04)" style="fill: none; stroke: #6b6b6b; stroke-width: 1.4; stroke-linecap: round"/>
    <path d="M 294.635241 185.8 
L 301.035241 189 
L 294.635241 192.2 
z
" clip-path="url(#p4d358ecd04)" style="fill: #6b6b6b; stroke: #6b6b6b; stroke-width: 1.4; stroke-linecap: round"/>
   </g>
   <g id="patch_6">
    <path d="M 304.600402 222.3 
L 397.395483 222.3 
Q 407.706048 222.3 407.706048 215.1 
L 407.706048 162.9 
Q 407.706048 155.7 397.395483 155.7 
L 304.600402 155.7 
Q 294.289838 155.7 294.289838 162.9 
L 294.289838 215.1 
Q 294.289838 222.3 304.600402 222.3 
z
" clip-path="url(#p4d358ecd04)" style="fill: #009e73"/>
   </g>
   <g id="patch_7">
    <path d="M 409.704097 189 
Q 420.593322 189 429.917298 189 
" clip-path="url(#p4d358ecd04)" style="fill: none; stroke: #6b6b6b; stroke-width: 1.4; stroke-linecap: round"/>
    <path d="M 423.517298 185.8 
L 429.917298 189 
L 423.517298 192.2 
z
" clip-path="url(#p4d358ecd04)" style="fill: #6b6b6b; stroke: #6b6b6b; stroke-width: 1.4; stroke-linecap: round"/>
   </g>
   <g id="patch_8">
    <path d="M 433.482459 222.3 
L 526.277541 222.3 
Q 536.588105 222.3 536.588105 215.1 
L 536.588105 162.9 
Q 536.588105 155.7 526.277541 155.7 
L 433.482459 155.7 
Q 423.171895 155.7 423.171895 162.9 
L 423.171895 215.1 
Q 423.171895 222.3 433.482459 222.3 
z
" clip-path="url(#p4d358ecd04)" style="fill: #0072b2"/>
   </g>
   <g id="patch_9">
    <path d="M 538.586155 189 
Q 549.475379 189 558.799355 189 
" clip-path="url(#p4d358ecd04)" style="fill: none; stroke: #6b6b6b; stroke-width: 1.4; stroke-linecap: round"/>
    <path d="M 552.399355 185.8 
L 558.799355 189 
L 552.399355 192.2 
z
" clip-path="url(#p4d358ecd04)" style="fill: #6b6b6b; stroke: #6b6b6b; stroke-width: 1.4; stroke-linecap: round"/>
   </g>
   <g id="patch_10">
    <path d="M 562.364517 222.3 
L 655.159598 222.3 
Q 665.470162 222.3 665.470162 215.1 
L 665.470162 162.9 
Q 665.470162 155.7 655.159598 155.7 
L 562.364517 155.7 
Q 552.053952 155.7 552.053952 162.9 
L 552.053952 215.1 
Q 552.053952 222.3 562.364517 222.3 
z
" clip-path="url(#p4d358ecd04)" style="fill: #0072b2"/>
   </g>
   <g id="patch_11">
    <path d="M 667.468212 189 
Q 678.357436 189 687.681413 189 
" clip-path="url(#p4d358ecd04)" style="fill: none; stroke: #6b6b6b; stroke-width: 1.4; stroke-linecap: round"/>
    <path d="M 681.281413 185.8 
L 687.681413 189 
L 681.281413 192.2 
z
" clip-path="url(#p4d358ecd04)" style="fill: #6b6b6b; stroke: #6b6b6b; stroke-width: 1.4; stroke-linecap: round"/>
   </g>
   <g id="patch_12">
    <path d="M 691.246574 222.3 
L 784.041655 222.3 
Q 794.352219 222.3 794.352219 215.1 
L 794.352219 162.9 
Q 794.352219 155.7 784.041655 155.7 
L 691.246574 155.7 
Q 680.936009 155.7 680.936009 162.9 
L 680.936009 215.1 
Q 680.936009 222.3 691.246574 222.3 
z
" clip-path="url(#p4d358ecd04)" style="fill: #0072b2"/>
   </g>
   <g id="patch_13">
    <path d="M 796.350269 189 
Q 807.239493 189 816.56347 189 
" clip-path="url(#p4d358ecd04)" style="fill: none; stroke: #6b6b6b; stroke-width: 1.4; stroke-linecap: round"/>
    <path d="M 810.16347 185.8 
L 816.56347 189 
L 810.16347 192.2 
z
" clip-path="url(#p4d358ecd04)" style="fill: #6b6b6b; stroke: #6b6b6b; stroke-width: 1.4; stroke-linecap: round"/>
   </g>
   <g id="patch_14">
    <path d="M 820.128631 222.3 
L 912.923712 222.3 
Q 923.234277 222.3 923.234277 215.1 
L 923.234277 162.9 
Q 923.234277 155.7 912.923712 155.7 
L 820.128631 155.7 
Q 809.818066 155.7 809.818066 162.9 
L 809.818066 215.1 
Q 809.818066 222.3 820.128631 222.3 
z
" clip-path="url(#p4d358ecd04)" style="fill: #005a8d"/>
   </g>
   <g id="line2d_1">
    <path d="M 93.233829 127.8 
L 93.233829 153 
" clip-path="url(#p4d358ecd04)" style="fill: none; stroke: #6b6b6b; stroke-width: 0.8; stroke-linecap: square"/>
   </g>
   <g id="line2d_2">
    <path d="M 222.115886 127.8 
L 222.115886 153 
" clip-path="url(#p4d358ecd04)" style="fill: none; stroke: #6b6b6b; stroke-width: 0.8; stroke-linecap: square"/>
   </g>
   <g id="line2d_3">
    <path d="M 222.115886 247.5 
L 222.115886 225 
" clip-path="url(#p4d358ecd04)" style="fill: none; stroke: #6b6b6b; stroke-width: 0.8; stroke-linecap: square"/>
   </g>
   <g id="line2d_4">
    <path d="M 479.88 127.8 
L 479.88 153 
" clip-path="url(#p4d358ecd04)" style="fill: none; stroke: #6b6b6b; stroke-width: 0.8; stroke-linecap: square"/>
   </g>
   <g id="line2d_5">
    <path d="M 479.88 247.5 
L 479.88 225 
" clip-path="url(#p4d358ecd04)" style="fill: none; stroke: #6b6b6b; stroke-width: 0.8; stroke-linecap: square"/>
   </g>
   <g id="line2d_6">
    <path d="M 608.762057 247.5 
L 608.762057 225 
" clip-path="url(#p4d358ecd04)" style="fill: none; stroke: #6b6b6b; stroke-width: 0.8; stroke-linecap: square"/>
   </g>
   <g id="line2d_7">
    <path d="M 737.644114 127.8 
L 737.644114 153 
" clip-path="url(#p4d358ecd04)" style="fill: none; stroke: #6b6b6b; stroke-width: 0.8; stroke-linecap: square"/>
   </g>
   <g id="line2d_8">
    <path d="M 737.644114 247.5 
L 737.644114 225 
" clip-path="url(#p4d358ecd04)" style="fill: none; stroke: #6b6b6b; stroke-width: 0.8; stroke-linecap: square"/>
   </g>
   <g id="line2d_9">
    <path d="M 866.526171 127.8 
L 866.526171 153 
" clip-path="url(#p4d358ecd04)" style="fill: none; stroke: #6b6b6b; stroke-width: 0.8; stroke-linecap: square"/>
   </g>
   <g id="line2d_10">
    <path d="M 866.526171 247.5 
L 866.526171 225 
" clip-path="url(#p4d358ecd04)" style="fill: none; stroke: #6b6b6b; stroke-width: 0.8; stroke-linecap: square"/>
   </g>
   <g id="text_1">
    <text style="font-weight: 700; font-size: 14px; font-family: 'Arial'; fill: #222222" transform="translate(63.677422 185.004395)">Potential</text>
    <text style="font-weight: 700; font-size: 14px; font-family: 'Arial'; fill: #222222" transform="translate(66.398672 200.241699)">patients</text>
   </g>
   <g id="text_2">
    <text style="font-size: 13px; font-family: 'Arial'; fill: #222222" transform="translate(73.369219 99.789795)">Who is</text>
    <text style="font-size: 13px; font-family: 'Arial'; fill: #222222" transform="translate(63.963516 113.938721)">available?</text>
   </g>
   <g id="text_3">
    <text style="font-weight: 700; font-size: 14px; font-family: 'Arial'; text-anchor: middle; fill: #222222" x="222.115886" y="192.62291" transform="rotate(-0 222.115886 192.62291)">Screening</text>
   </g>
   <g id="text_4">
    <text style="font-size: 13px; font-family: 'Arial'; fill: #222222" transform="translate(196.466276 99.789795)">Who can</text>
    <text style="font-size: 13px; font-family: 'Arial'; fill: #222222" transform="translate(203.68737 113.938721)">enter?</text>
   </g>
   <g id="text_5">
    <text style="font-size: 12px; font-family: 'Arial'; fill: #6b6b6b" transform="translate(198.774948 271.075078)">Eligibility</text>
    <text style="font-size: 12px; font-family: 'Arial'; fill: #6b6b6b" transform="translate(204.114011 284.135859)">criteria</text>
   </g>
   <g id="text_6">
    <text style="font-weight: 700; font-size: 14px; font-family: 'Arial'; fill: #ffffff" transform="translate(326.10638 185.004258)">Eligible</text>
    <text style="font-weight: 700; font-size: 14px; font-family: 'Arial'; fill: #ffffff" transform="translate(315.232318 200.241836)">population</text>
   </g>
   <g id="text_7">
    <text style="font-weight: 700; font-size: 14px; font-family: 'Arial'; text-anchor: middle; fill: #ffffff" x="479.88" y="192.623047" transform="rotate(-0 479.88 192.623047)">Enrolment</text>
   </g>
   <g id="text_8">
    <text style="font-size: 13px; font-family: 'Arial'; fill: #222222" transform="translate(445.195391 99.789795)">Who can be</text>
    <text style="font-size: 13px; font-family: 'Arial'; fill: #222222" transform="translate(450.978359 113.938721)">recruited?</text>
   </g>
   <g id="text_9">
    <text style="font-size: 12px; font-family: 'Arial'; fill: #6b6b6b" transform="translate(452.761875 271.075195)">Treatment</text>
    <text style="font-size: 12px; font-family: 'Arial'; fill: #6b6b6b" transform="translate(454.530937 284.135742)">allocation</text>
   </g>
   <g id="text_10">
    <text style="font-weight: 700; font-size: 14px; font-family: 'Arial'; text-anchor: middle; fill: #ffffff" x="608.762057" y="192.623047" transform="rotate(-0 608.762057 192.623047)">Treatment</text>
   </g>
   <g id="text_11">
    <text style="font-size: 12px; font-family: 'Arial'; fill: #6b6b6b" transform="translate(566.40487 271.075078)">Procedures and</text>
    <text style="font-size: 12px; font-family: 'Arial'; fill: #6b6b6b" transform="translate(563.076745 284.135625)">safety monitoring</text>
   </g>
   <g id="text_12">
    <text style="font-weight: 700; font-size: 14px; font-family: 'Arial'; text-anchor: middle; fill: #ffffff" x="737.644114" y="192.623047" transform="rotate(-0 737.644114 192.623047)">Follow-up</text>
   </g>
   <g id="text_13">
    <text style="font-size: 13px; font-family: 'Arial'; fill: #222222" transform="translate(699.357083 99.789668)">Who remains</text>
    <text style="font-size: 13px; font-family: 'Arial'; fill: #222222" transform="translate(709.459505 113.938594)">on study?</text>
   </g>
   <g id="text_14">
    <text style="font-size: 12px; font-family: 'Arial'; fill: #6b6b6b" transform="translate(726.417552 271.075195)">Visit</text>
    <text style="font-size: 12px; font-family: 'Arial'; fill: #6b6b6b" transform="translate(713.628177 284.135742)">schedule</text>
   </g>
   <g id="text_15">
    <text style="font-weight: 700; font-size: 14px; font-family: 'Arial'; fill: #ffffff" transform="translate(833.873359 185.004395)">Endpoint-</text>
    <text style="font-weight: 700; font-size: 14px; font-family: 'Arial'; fill: #ffffff" transform="translate(834.622578 200.241699)">evaluable</text>
   </g>
   <g id="text_16">
    <text style="font-size: 13px; font-family: 'Arial'; fill: #222222" transform="translate(826.788828 99.789795)">Who provides</text>
    <text style="font-size: 13px; font-family: 'Arial'; fill: #222222" transform="translate(827.133125 113.938721)">the endpoint?</text>
   </g>
   <g id="text_17">
    <text style="font-size: 12px; font-family: 'Arial'; fill: #6b6b6b" transform="translate(842.841171 271.075195)">Endpoint</text>
    <text style="font-size: 12px; font-family: 'Arial'; fill: #6b6b6b" transform="translate(831.513359 284.135742)">requirements</text>
   </g>
   <g id="text_18">
    <text style="font-weight: 700; font-size: 13px; font-family: 'Arial'; text-anchor: start; fill: #6b6b6b" x="28.7928" y="67.5" transform="rotate(-0 28.7928 67.5)">Feasibility questions</text>
   </g>
   <g id="text_19">
    <text style="font-weight: 700; font-size: 13px; font-family: 'Arial'; text-anchor: start; fill: #6b6b6b" x="28.7928" y="324" transform="rotate(-0 28.7928 324)">What the protocol acts on</text>
   </g>
  </g>
  <g id="axes_2">
   <g id="line2d_11">
    <path d="M 82.032317 421.2 
L 896.922883 421.2 
" clip-path="url(#p08ed5bd02b)" style="fill: none; stroke: #cccccc; stroke-width: 3; stroke-linecap: square"/>
   </g>
   <g id="line2d_12">
    <defs>
     <path id="me217945f04" d="M 0 5.5 
C 1.458617 5.5 2.857689 4.920485 3.889087 3.889087 
C 4.920485 2.857689 5.5 1.458617 5.5 0 
C 5.5 -1.458617 4.920485 -2.857689 3.889087 -3.889087 
C 2.857689 -4.920485 1.458617 -5.5 0 -5.5 
C -1.458617 -5.5 -2.857689 -4.920485 -3.889087 -3.889087 
C -4.920485 -2.857689 -5.5 -1.458617 -5.5 0 
C -5.5 1.458617 -4.920485 2.857689 -3.889087 3.889087 
C -2.857689 4.920485 -1.458617 5.5 0 5.5 
z
" style="stroke: #bdbdbd"/>
    </defs>
    <g clip-path="url(#p08ed5bd02b)">
     <use xlink:href="#me217945f04" x="82.032317" y="421.2" style="fill: #bdbdbd; stroke: #bdbdbd"/>
    </g>
   </g>
   <g id="line2d_13">
    <defs>
     <path id="m72ea6b2648" d="M 0 5.5 
C 1.458617 5.5 2.857689 4.920485 3.889087 3.889087 
C 4.920485 2.857689 5.5 1.458617 5.5 0 
C 5.5 -1.458617 4.920485 -2.857689 3.889087 -3.889087 
C 2.857689 -4.920485 1.458617 -5.5 0 -5.5 
C -1.458617 -5.5 -2.857689 -4.920485 -3.889087 -3.889087 
C -4.920485 -2.857689 -5.5 -1.458617 -5.5 0 
C -5.5 1.458617 -4.920485 2.857689 -3.889087 3.889087 
C -2.857689 4.920485 -1.458617 5.5 0 5.5 
z
" style="stroke: #0072b2"/>
    </defs>
    <g clip-path="url(#p08ed5bd02b)">
     <use xlink:href="#m72ea6b2648" x="134.664447" y="421.2" style="fill: #0072b2; stroke: #0072b2"/>
    </g>
   </g>
   <g id="line2d_14">
    <defs>
     <path id="me7c951f746" d="M 0 5.5 
C 1.458617 5.5 2.857689 4.920485 3.889087 3.889087 
C 4.920485 2.857689 5.5 1.458617 5.5 0 
C 5.5 -1.458617 4.920485 -2.857689 3.889087 -3.889087 
C 2.857689 -4.920485 1.458617 -5.5 0 -5.5 
C -1.458617 -5.5 -2.857689 -4.920485 -3.889087 -3.889087 
C -4.920485 -2.857689 -5.5 -1.458617 -5.5 0 
C -5.5 1.458617 -4.920485 2.857689 -3.889087 3.889087 
C -2.857689 4.920485 -1.458617 5.5 0 5.5 
z
" style="stroke: #e69f00"/>
    </defs>
    <g clip-path="url(#p08ed5bd02b)">
     <use xlink:href="#me7c951f746" x="156.44326" y="421.2" style="fill: #e69f00; stroke: #e69f00"/>
    </g>
   </g>
   <g id="line2d_15">
    <g clip-path="url(#p08ed5bd02b)">
     <use xlink:href="#me7c951f746" x="285.301233" y="421.2" style="fill: #e69f00; stroke: #e69f00"/>
    </g>
   </g>
   <g id="line2d_16">
    <defs>
     <path id="m5e6d7eaa54" d="M 0 5.5 
C 1.458617 5.5 2.857689 4.920485 3.889087 3.889087 
C 4.920485 2.857689 5.5 1.458617 5.5 0 
C 5.5 -1.458617 4.920485 -2.857689 3.889087 -3.889087 
C 2.857689 -4.920485 1.458617 -5.5 0 -5.5 
C -1.458617 -5.5 -2.857689 -4.920485 -3.889087 -3.889087 
C -4.920485 -2.857689 -5.5 -1.458617 -5.5 0 
C -5.5 1.458617 -4.920485 2.857689 -3.889087 3.889087 
C -2.857689 4.920485 -1.458617 5.5 0 5.5 
z
" style="stroke: #005a8d"/>
    </defs>
    <g clip-path="url(#p08ed5bd02b)">
     <use xlink:href="#m5e6d7eaa54" x="287.116134" y="421.2" style="fill: #005a8d; stroke: #005a8d"/>
    </g>
   </g>
   <g id="line2d_17">
    <defs>
     <path id="m16e99f4800" d="M 0 5.5 
C 1.458617 5.5 2.857689 4.920485 3.889087 3.889087 
C 4.920485 2.857689 5.5 1.458617 5.5 0 
C 5.5 -1.458617 4.920485 -2.857689 3.889087 -3.889087 
C 2.857689 -4.920485 1.458617 -5.5 0 -5.5 
C -1.458617 -5.5 -2.857689 -4.920485 -3.889087 -3.889087 
C -4.920485 -2.857689 -5.5 -1.458617 -5.5 0 
C -5.5 1.458617 -4.920485 2.857689 -3.889087 3.889087 
C -2.857689 4.920485 -1.458617 5.5 0 5.5 
z
" style="stroke: #222222"/>
    </defs>
    <g clip-path="url(#p08ed5bd02b)">
     <use xlink:href="#m16e99f4800" x="744.471196" y="421.2" style="fill: #222222; stroke: #222222"/>
    </g>
   </g>
   <g id="line2d_18">
    <defs>
     <path id="mab684822d9" d="M 0 5.5 
C 1.458617 5.5 2.857689 4.920485 3.889087 3.889087 
C 4.920485 2.857689 5.5 1.458617 5.5 0 
C 5.5 -1.458617 4.920485 -2.857689 3.889087 -3.889087 
C 2.857689 -4.920485 1.458617 -5.5 0 -5.5 
C -1.458617 -5.5 -2.857689 -4.920485 -3.889087 -3.889087 
C -4.920485 -2.857689 -5.5 -1.458617 -5.5 0 
C -5.5 1.458617 -4.920485 2.857689 -3.889087 3.889087 
C -2.857689 4.920485 -1.458617 5.5 0 5.5 
z
" style="stroke: #d55e00"/>
    </defs>
    <g clip-path="url(#p08ed5bd02b)">
     <use xlink:href="#mab684822d9" x="744.471196" y="421.2" style="fill: #d55e00; stroke: #d55e00"/>
    </g>
   </g>
   <g id="line2d_19">
    <defs>
     <path id="m78e736188a" d="M 0 5.5 
C 1.458617 5.5 2.857689 4.920485 3.889087 3.889087 
C 4.920485 2.857689 5.5 1.458617 5.5 0 
C 5.5 -1.458617 4.920485 -2.857689 3.889087 -3.889087 
C 2.857689 -4.920485 1.458617 -5.5 0 -5.5 
C -1.458617 -5.5 -2.857689 -4.920485 -3.889087 -3.889087 
C -4.920485 -2.857689 -5.5 -1.458617 -5.5 0 
C -5.5 1.458617 -4.920485 2.857689 -3.889087 3.889087 
C -2.857689 4.920485 -1.458617 5.5 0 5.5 
z
" style="stroke: #8a8a8a"/>
    </defs>
    <g clip-path="url(#p08ed5bd02b)">
     <use xlink:href="#m78e736188a" x="896.922883" y="421.2" style="fill: #8a8a8a; stroke: #8a8a8a"/>
    </g>
   </g>
   <g id="text_20">
    <text style="font-size: 10.5px; font-family: 'Arial'; fill: #222222" transform="translate(58.10134 388.212612)">Screened,</text>
    <text style="font-size: 10.5px; font-family: 'Arial'; fill: #222222" transform="translate(65.688411 399.640591)">eligible</text>
   </g>
   <g id="text_21">
    <text style="font-size: 9px; font-family: 'Arial'; text-anchor: middle; fill: #6b6b6b" x="82.032317" y="431.802246" transform="rotate(-0 82.032317 431.802246)">day -28</text>
   </g>
   <g id="text_22">
    <text style="font-size: 10.5px; font-family: 'Arial'; fill: #0072b2" transform="translate(103.732924 448.193774)">Randomised,</text>
    <text style="font-size: 10.5px; font-family: 'Arial'; fill: #0072b2" transform="translate(118.325463 459.621753)">cycle 1</text>
   </g>
   <g id="text_23">
    <text style="font-size: 9px; font-family: 'Arial'; text-anchor: middle; fill: #6b6b6b" x="134.664447" y="415.255781" transform="rotate(-0 134.664447 415.255781)">day 1</text>
   </g>
   <g id="text_24">
    <text style="font-size: 10.5px; font-family: 'Arial'; fill: #e69f00" transform="translate(120.836775 388.212612)">abdominal pain</text>
    <text style="font-size: 10.5px; font-family: 'Arial'; fill: #e69f00" transform="translate(135.143025 399.640591)">(grade 1)</text>
   </g>
   <g id="text_25">
    <text style="font-size: 9px; font-family: 'Arial'; text-anchor: middle; fill: #6b6b6b" x="156.44326" y="431.802246" transform="rotate(-0 156.44326 431.802246)">day 13</text>
   </g>
   <g id="text_26">
    <text style="font-size: 10.5px; font-family: 'Arial'; text-anchor: middle; fill: #e69f00" x="285.301233" y="447.406787" transform="rotate(-0 285.301233 447.406787)">Dose hold</text>
   </g>
   <g id="text_27">
    <text style="font-size: 9px; font-family: 'Arial'; text-anchor: middle; fill: #6b6b6b" x="285.301233" y="415.255781" transform="rotate(-0 285.301233 415.255781)">day 84</text>
   </g>
   <g id="text_28">
    <text style="font-size: 10.5px; font-family: 'Arial'; fill: #005a8d" transform="translate(269.224298 388.212817)">Tumour</text>
    <text style="font-size: 10.5px; font-family: 'Arial'; fill: #005a8d" transform="translate(259.106564 399.640796)">assessment</text>
   </g>
   <g id="text_29">
    <text style="font-size: 9px; font-family: 'Arial'; text-anchor: middle; fill: #6b6b6b" x="287.116134" y="431.802246" transform="rotate(-0 287.116134 431.802246)">day 85</text>
   </g>
   <g id="text_30">
    <text style="font-size: 10.5px; font-family: 'Arial'; fill: #222222" transform="translate(729.293774 448.193774)">End of</text>
    <text style="font-size: 10.5px; font-family: 'Arial'; fill: #222222" transform="translate(722.296508 459.621753)">treatment</text>
   </g>
   <g id="text_31">
    <text style="font-size: 9px; font-family: 'Arial'; text-anchor: middle; fill: #6b6b6b" x="744.471196" y="415.255781" transform="rotate(-0 744.471196 415.255781)">day 337</text>
   </g>
   <g id="text_32">
    <text style="font-size: 10.5px; font-family: 'Arial'; fill: #d55e00" transform="translate(716.459165 388.212612)">Progression</text>
    <text style="font-size: 10.5px; font-family: 'Arial'; fill: #d55e00" transform="translate(727.545688 399.640796)">at scan</text>
   </g>
   <g id="text_33">
    <text style="font-size: 9px; font-family: 'Arial'; text-anchor: middle; fill: #6b6b6b" x="744.471196" y="431.802246" transform="rotate(-0 744.471196 431.802246)">day 337</text>
   </g>
   <g id="text_34">
    <text style="font-size: 10.5px; font-family: 'Arial'; fill: #8a8a8a" transform="translate(874.165774 448.193774)">Follow-up</text>
    <text style="font-size: 10.5px; font-family: 'Arial'; fill: #8a8a8a" transform="translate(887.881399 459.621753)">visit</text>
   </g>
   <g id="text_35">
    <text style="font-size: 9px; font-family: 'Arial'; text-anchor: middle; fill: #6b6b6b" x="896.922883" y="415.255781" transform="rotate(-0 896.922883 415.255781)">day 421</text>
   </g>
  </g>
  <g id="text_36">
   <text style="font-weight: 700; font-size: 19px; font-family: 'Arial'; text-anchor: start; fill: #222222" x="38.3904" y="34.616807" transform="rotate(-0 38.3904 34.616807)">From protocol requirements to a feasible patient journey</text>
  </g>
  <g id="text_37">
   <text style="font-weight: 700; font-size: 12px; font-family: 'Arial'; text-anchor: start; fill: #222222" x="38.3904" y="353.7" transform="rotate(-0 38.3904 353.7)">One simulated participant (intravenous pembrolizumab arm): 60-year-old male, ECOG 0</text>
  </g>
 </g>
 <defs>
  <clipPath id="p4d358ecd04">
   <rect x="28.7928" y="54" width="902.1744" height="270"/>
  </clipPath>
  <clipPath id="p08ed5bd02b">
   <rect x="57.5856" y="367.2" width="863.784" height="108"/>
  </clipPath>
 </defs>
</svg>
