<?xml version="1.0" encoding="utf-8" standalone="no"?>
<!DOCTYPE svg PUBLIC "-//W3C//DTD SVG 1.1//EN"
  "http://www.w3.org/Graphics/SVG/1.1/DTD/svg11.dtd">
<svg xmlns:xlink="http://www.w3.org/1999/xlink" width="959.76pt" height="540pt" viewBox="0 0 959.76 540" xmlns="http://www.w3.org/2000/svg" version="1.1">
 <metadata>
  <rdf:RDF xmlns:dc="http://purl.org/dc/elements/1.1/" xmlns:cc="http://creativecommons.org/ns#" xmlns:rdf="http://www.w3.org/1999/02/22-rdf-syntax-ns#">
   <cc:Work>
    <dc:type rdf:resource="http://purl.org/dc/dcmitype/StillImage"/>
    <dc:date>2026-10-09T20:58:56.789531</dc:date>
    <dc:format>image/svg+xml</dc:format>
    <dc:creator>
     <cc:Agent>
      <dc:title>Matplotlib v3.11.2, https://matplotlib.org/</dc:title>
     </cc:Agent>
    </dc:creator>
   </cc:Work>
  </rdf:RDF>
 </metadata>
 <defs>
  <style type="text/css">*{stroke-linejoin: round; stroke-linecap: butt}</style>
 </defs>
 <g id="figure_1">
  <g id="patch_1">
   <path d="M 0 540 
L 959.76 540 
L 959.76 0 
L 0 0 
z
" style="fill: #ffffff"/>
  </g>
  <g id="axes_1">
   <g id="patch_2">
    <path d="M 194.019847 89.397 
L 258.812372 89.397 
L 258.812372 133.353 
L 194.019847 133.353 
z
" clip-path="url(#pee34e30e81)" style="fill: #efefef"/>
   </g>
   <g id="patch_3">
    <path d="M 194.019847 139.347 
L 258.812372 139.347 
L 258.812372 183.303 
L 194.019847 183.303 
z
" clip-path="url(#pee34e30e81)" style="fill: #89ccba"/>
   </g>
   <g id="patch_4">
    <path d="M 194.019847 189.297 
L 258.812372 189.297 
L 258.812372 233.253 
L 194.019847 233.253 
z
" clip-path="url(#pee34e30e81)" style="fill: #efefef"/>
   </g>
   <g id="patch_5">
    <path d="M 194.019847 239.247 
L 258.812372 239.247 
L 258.812372 283.203 
L 194.019847 283.203 
z
" clip-path="url(#pee34e30e81)" style="fill: #efefef"/>
   </g>
   <g id="patch_6">
    <path d="M 194.019847 289.197 
L 258.812372 289.197 
L 258.812372 333.153 
L 194.019847 333.153 
z
" clip-path="url(#pee34e30e81)" style="fill: #efefef"/>
   </g>
   <g id="patch_7">
    <path d="M 194.019847 339.147 
L 258.812372 339.147 
L 258.812372 383.103 
L 194.019847 383.103 
z
" clip-path="url(#pee34e30e81)" style="fill: #efefef"/>
   </g>
   <g id="patch_8">
    <path d="M 194.019847 389.097 
L 258.812372 389.097 
L 258.812372 433.053 
L 194.019847 433.053 
z
" clip-path="url(#pee34e30e81)" style="fill: #efefef"/>
   </g>
   <g id="patch_9">
    <path d="M 194.019847 439.047 
L 258.812372 439.047 
L 258.812372 483.003 
L 194.019847 483.003 
z
" clip-path="url(#pee34e30e81)" style="fill: #efefef"/>
   </g>
   <g id="patch_10">
    <path d="M 262.948065 89.397 
L 327.74059 89.397 
L 327.74059 133.353 
L 262.948065 133.353 
z
" clip-path="url(#pee34e30e81)" style="fill: #efefef"/>
   </g>
   <g id="patch_11">
    <path d="M 262.948065 139.347 
L 327.74059 139.347 
L 327.74059 183.303 
L 262.948065 183.303 
z
" clip-path="url(#pee34e30e81)" style="fill: #8bcdbb"/>
   </g>
   <g id="patch_12">
    <path d="M 262.948065 189.297 
L 327.74059 189.297 
L 327.74059 233.253 
L 262.948065 233.253 
z
" clip-path="url(#pee34e30e81)" style="fill: #efefef"/>
   </g>
   <g id="patch_13">
    <path d="M 262.948065 239.247 
L 327.74059 239.247 
L 327.74059 283.203 
L 262.948065 283.203 
z
" clip-path="url(#pee34e30e81)" style="fill: #efefef"/>
   </g>
   <g id="patch_14">
    <path d="M 262.948065 289.197 
L 327.74059 289.197 
L 327.74059 333.153 
L 262.948065 333.153 
z
" clip-path="url(#pee34e30e81)" style="fill: #efefef"/>
   </g>
   <g id="patch_15">
    <path d="M 262.948065 339.147 
L 327.74059 339.147 
L 327.74059 383.103 
L 262.948065 383.103 
z
" clip-path="url(#pee34e30e81)" style="fill: #e9bd59"/>
   </g>
   <g id="patch_16">
    <path d="M 262.948065 389.097 
L 327.74059 389.097 
L 327.74059 433.053 
L 262.948065 433.053 
z
" clip-path="url(#pee34e30e81)" style="fill: #efefef"/>
   </g>
   <g id="patch_17">
    <path d="M 262.948065 439.047 
L 327.74059 439.047 
L 327.74059 483.003 
L 262.948065 483.003 
z
" clip-path="url(#pee34e30e81)" style="fill: #efefef"/>
   </g>
   <g id="patch_18">
    <path d="M 331.876283 89.397 
L 396.668808 89.397 
L 396.668808 133.353 
L 331.876283 133.353 
z
" clip-path="url(#pee34e30e81)" style="fill: #efefef"/>
   </g>
   <g id="patch_19">
    <path d="M 331.876283 139.347 
L 396.668808 139.347 
L 396.668808 183.303 
L 331.876283 183.303 
z
" clip-path="url(#pee34e30e81)" style="fill: #8bcdbb"/>
   </g>
   <g id="patch_20">
    <path d="M 331.876283 189.297 
L 396.668808 189.297 
L 396.668808 233.253 
L 331.876283 233.253 
z
" clip-path="url(#pee34e30e81)" style="fill: #79c7b2"/>
   </g>
   <g id="patch_21">
    <path d="M 331.876283 239.247 
L 396.668808 239.247 
L 396.668808 283.203 
L 331.876283 283.203 
z
" clip-path="url(#pee34e30e81)" style="fill: #efefef"/>
   </g>
   <g id="patch_22">
    <path d="M 331.876283 289.197 
L 396.668808 289.197 
L 396.668808 333.153 
L 331.876283 333.153 
z
" clip-path="url(#pee34e30e81)" style="fill: #efefef"/>
   </g>
   <g id="patch_23">
    <path d="M 331.876283 339.147 
L 396.668808 339.147 
L 396.668808 383.103 
L 331.876283 383.103 
z
" clip-path="url(#pee34e30e81)" style="fill: #e9bd59"/>
   </g>
   <g id="patch_24">
    <path d="M 331.876283 389.097 
L 396.668808 389.097 
L 396.668808 433.053 
L 331.876283 433.053 
z
" clip-path="url(#pee34e30e81)" style="fill: #eac36b"/>
   </g>
   <g id="patch_25">
    <path d="M 331.876283 439.047 
L 396.668808 439.047 
L 396.668808 483.003 
L 331.876283 483.003 
z
" clip-path="url(#pee34e30e81)" style="fill: #efefef"/>
   </g>
   <g id="patch_26">
    <path d="M 400.804501 89.397 
L 465.597026 89.397 
L 465.597026 133.353 
L 400.804501 133.353 
z
" clip-path="url(#pee34e30e81)" style="fill: #efefef"/>
   </g>
   <g id="patch_27">
    <path d="M 400.804501 139.347 
L 465.597026 139.347 
L 465.597026 183.303 
L 400.804501 183.303 
z
" clip-path="url(#pee34e30e81)" style="fill: #7dc8b4"/>
   </g>
   <g id="patch_28">
    <path d="M 400.804501 189.297 
L 465.597026 189.297 
L 465.597026 233.253 
L 400.804501 233.253 
z
" clip-path="url(#pee34e30e81)" style="fill: #62bfa6"/>
   </g>
   <g id="patch_29">
    <path d="M 400.804501 239.247 
L 465.597026 239.247 
L 465.597026 283.203 
L 400.804501 283.203 
z
" clip-path="url(#pee34e30e81)" style="fill: #009e73"/>
   </g>
   <g id="patch_30">
    <path d="M 400.804501 289.197 
L 465.597026 289.197 
L 465.597026 333.153 
L 400.804501 333.153 
z
" clip-path="url(#pee34e30e81)" style="fill: #efefef"/>
   </g>
   <g id="patch_31">
    <path d="M 400.804501 339.147 
L 465.597026 339.147 
L 465.597026 383.103 
L 400.804501 383.103 
z
" clip-path="url(#pee34e30e81)" style="fill: #e9b94d"/>
   </g>
   <g id="patch_32">
    <path d="M 400.804501 389.097 
L 465.597026 389.097 
L 465.597026 433.053 
L 400.804501 433.053 
z
" clip-path="url(#pee34e30e81)" style="fill: #eabf5f"/>
   </g>
   <g id="patch_33">
    <path d="M 400.804501 439.047 
L 465.597026 439.047 
L 465.597026 483.003 
L 400.804501 483.003 
z
" clip-path="url(#pee34e30e81)" style="fill: #efefef"/>
   </g>
   <g id="patch_34">
    <path d="M 469.732719 89.397 
L 534.525244 89.397 
L 534.525244 133.353 
L 469.732719 133.353 
z
" clip-path="url(#pee34e30e81)" style="fill: #efefef"/>
   </g>
   <g id="patch_35">
    <path d="M 469.732719 139.347 
L 534.525244 139.347 
L 534.525244 183.303 
L 469.732719 183.303 
z
" clip-path="url(#pee34e30e81)" style="fill: #efefef"/>
   </g>
   <g id="patch_36">
    <path d="M 469.732719 189.297 
L 534.525244 189.297 
L 534.525244 233.253 
L 469.732719 233.253 
z
" clip-path="url(#pee34e30e81)" style="fill: #efefef"/>
   </g>
   <g id="patch_37">
    <path d="M 469.732719 239.247 
L 534.525244 239.247 
L 534.525244 283.203 
L 469.732719 283.203 
z
" clip-path="url(#pee34e30e81)" style="fill: #efefef"/>
   </g>
   <g id="patch_38">
    <path d="M 469.732719 289.197 
L 534.525244 289.197 
L 534.525244 333.153 
L 469.732719 333.153 
z
" clip-path="url(#pee34e30e81)" style="fill: #efefef"/>
   </g>
   <g id="patch_39">
    <path d="M 469.732719 339.147 
L 534.525244 339.147 
L 534.525244 383.103 
L 469.732719 383.103 
z
" clip-path="url(#pee34e30e81)" style="fill: #efefef"/>
   </g>
   <g id="patch_40">
    <path d="M 469.732719 389.097 
L 534.525244 389.097 
L 534.525244 433.053 
L 469.732719 433.053 
z
" clip-path="url(#pee34e30e81)" style="fill: #efefef"/>
   </g>
   <g id="patch_41">
    <path d="M 469.732719 439.047 
L 534.525244 439.047 
L 534.525244 483.003 
L 469.732719 483.003 
z
" clip-path="url(#pee34e30e81)" style="fill: #efefef"/>
   </g>
   <g id="patch_42">
    <path d="M 538.660937 89.397 
L 603.453463 89.397 
L 603.453463 133.353 
L 538.660937 133.353 
z
" clip-path="url(#pee34e30e81)" style="fill: #efefef"/>
   </g>
   <g id="patch_43">
    <path d="M 538.660937 139.347 
L 603.453463 139.347 
L 603.453463 183.303 
L 538.660937 183.303 
z
" clip-path="url(#pee34e30e81)" style="fill: #efefef"/>
   </g>
   <g id="patch_44">
    <path d="M 538.660937 189.297 
L 603.453463 189.297 
L 603.453463 233.253 
L 538.660937 233.253 
z
" clip-path="url(#pee34e30e81)" style="fill: #efefef"/>
   </g>
   <g id="patch_45">
    <path d="M 538.660937 239.247 
L 603.453463 239.247 
L 603.453463 283.203 
L 538.660937 283.203 
z
" clip-path="url(#pee34e30e81)" style="fill: #efefef"/>
   </g>
   <g id="patch_46">
    <path d="M 538.660937 289.197 
L 603.453463 289.197 
L 603.453463 333.153 
L 538.660937 333.153 
z
" clip-path="url(#pee34e30e81)" style="fill: #efefef"/>
   </g>
   <g id="patch_47">
    <path d="M 538.660937 339.147 
L 603.453463 339.147 
L 603.453463 383.103 
L 538.660937 383.103 
z
" clip-path="url(#pee34e30e81)" style="fill: #efefef"/>
   </g>
   <g id="patch_48">
    <path d="M 538.660937 389.097 
L 603.453463 389.097 
L 603.453463 433.053 
L 538.660937 433.053 
z
" clip-path="url(#pee34e30e81)" style="fill: #efefef"/>
   </g>
   <g id="patch_49">
    <path d="M 538.660937 439.047 
L 603.453463 439.047 
L 603.453463 483.003 
L 538.660937 483.003 
z
" clip-path="url(#pee34e30e81)" style="fill: #efefef"/>
   </g>
   <g id="patch_50">
    <path d="M 607.589156 89.397 
L 672.381681 89.397 
L 672.381681 133.353 
L 607.589156 133.353 
z
" clip-path="url(#pee34e30e81)" style="fill: #efefef"/>
   </g>
   <g id="patch_51">
    <path d="M 607.589156 139.347 
L 672.381681 139.347 
L 672.381681 183.303 
L 607.589156 183.303 
z
" clip-path="url(#pee34e30e81)" style="fill: #efefef"/>
   </g>
   <g id="patch_52">
    <path d="M 607.589156 189.297 
L 672.381681 189.297 
L 672.381681 233.253 
L 607.589156 233.253 
z
" clip-path="url(#pee34e30e81)" style="fill: #efefef"/>
   </g>
   <g id="patch_53">
    <path d="M 607.589156 239.247 
L 672.381681 239.247 
L 672.381681 283.203 
L 607.589156 283.203 
z
" clip-path="url(#pee34e30e81)" style="fill: #efefef"/>
   </g>
   <g id="patch_54">
    <path d="M 607.589156 289.197 
L 672.381681 289.197 
L 672.381681 333.153 
L 607.589156 333.153 
z
" clip-path="url(#pee34e30e81)" style="fill: #efefef"/>
   </g>
   <g id="patch_55">
    <path d="M 607.589156 339.147 
L 672.381681 339.147 
L 672.381681 383.103 
L 607.589156 383.103 
z
" clip-path="url(#pee34e30e81)" style="fill: #efefef"/>
   </g>
   <g id="patch_56">
    <path d="M 607.589156 389.097 
L 672.381681 389.097 
L 672.381681 433.053 
L 607.589156 433.053 
z
" clip-path="url(#pee34e30e81)" style="fill: #efefef"/>
   </g>
   <g id="patch_57">
    <path d="M 607.589156 439.047 
L 672.381681 439.047 
L 672.381681 483.003 
L 607.589156 483.003 
z
" clip-path="url(#pee34e30e81)" style="fill: #efefef"/>
   </g>
   <g id="patch_58">
    <path d="M 676.517374 89.397 
L 741.309899 89.397 
L 741.309899 133.353 
L 676.517374 133.353 
z
" clip-path="url(#pee34e30e81)" style="fill: #efefef"/>
   </g>
   <g id="patch_59">
    <path d="M 676.517374 139.347 
L 741.309899 139.347 
L 741.309899 183.303 
L 676.517374 183.303 
z
" clip-path="url(#pee34e30e81)" style="fill: #efefef"/>
   </g>
   <g id="patch_60">
    <path d="M 676.517374 189.297 
L 741.309899 189.297 
L 741.309899 233.253 
L 676.517374 233.253 
z
" clip-path="url(#pee34e30e81)" style="fill: #efefef"/>
   </g>
   <g id="patch_61">
    <path d="M 676.517374 239.247 
L 741.309899 239.247 
L 741.309899 283.203 
L 676.517374 283.203 
z
" clip-path="url(#pee34e30e81)" style="fill: #efefef"/>
   </g>
   <g id="patch_62">
    <path d="M 676.517374 289.197 
L 741.309899 289.197 
L 741.309899 333.153 
L 676.517374 333.153 
z
" clip-path="url(#pee34e30e81)" style="fill: #efefef"/>
   </g>
   <g id="patch_63">
    <path d="M 676.517374 339.147 
L 741.309899 339.147 
L 741.309899 383.103 
L 676.517374 383.103 
z
" clip-path="url(#pee34e30e81)" style="fill: #efefef"/>
   </g>
   <g id="patch_64">
    <path d="M 676.517374 389.097 
L 741.309899 389.097 
L 741.309899 433.053 
L 676.517374 433.053 
z
" clip-path="url(#pee34e30e81)" style="fill: #eac36b"/>
   </g>
   <g id="patch_65">
    <path d="M 676.517374 439.047 
L 741.309899 439.047 
L 741.309899 483.003 
L 676.517374 483.003 
z
" clip-path="url(#pee34e30e81)" style="fill: #efefef"/>
   </g>
   <g id="patch_66">
    <path d="M 745.445592 89.397 
L 810.238117 89.397 
L 810.238117 133.353 
L 745.445592 133.353 
z
" clip-path="url(#pee34e30e81)" style="fill: #efefef"/>
   </g>
   <g id="patch_67">
    <path d="M 745.445592 139.347 
L 810.238117 139.347 
L 810.238117 183.303 
L 745.445592 183.303 
z
" clip-path="url(#pee34e30e81)" style="fill: #efefef"/>
   </g>
   <g id="patch_68">
    <path d="M 745.445592 189.297 
L 810.238117 189.297 
L 810.238117 233.253 
L 745.445592 233.253 
z
" clip-path="url(#pee34e30e81)" style="fill: #efefef"/>
   </g>
   <g id="patch_69">
    <path d="M 745.445592 239.247 
L 810.238117 239.247 
L 810.238117 283.203 
L 745.445592 283.203 
z
" clip-path="url(#pee34e30e81)" style="fill: #efefef"/>
   </g>
   <g id="patch_70">
    <path d="M 745.445592 289.197 
L 810.238117 289.197 
L 810.238117 333.153 
L 745.445592 333.153 
z
" clip-path="url(#pee34e30e81)" style="fill: #efefef"/>
   </g>
   <g id="patch_71">
    <path d="M 745.445592 339.147 
L 810.238117 339.147 
L 810.238117 383.103 
L 745.445592 383.103 
z
" clip-path="url(#pee34e30e81)" style="fill: #efefef"/>
   </g>
   <g id="patch_72">
    <path d="M 745.445592 389.097 
L 810.238117 389.097 
L 810.238117 433.053 
L 745.445592 433.053 
z
" clip-path="url(#pee34e30e81)" style="fill: #efefef"/>
   </g>
   <g id="patch_73">
    <path d="M 745.445592 439.047 
L 810.238117 439.047 
L 810.238117 483.003 
L 745.445592 483.003 
z
" clip-path="url(#pee34e30e81)" style="fill: #94d0c0"/>
   </g>
   <g id="patch_74">
    <path d="M 814.37381 89.397 
L 879.166335 89.397 
L 879.166335 133.353 
L 814.37381 133.353 
z
" clip-path="url(#pee34e30e81)" style="fill: #efefef"/>
   </g>
   <g id="patch_75">
    <path d="M 814.37381 139.347 
L 879.166335 139.347 
L 879.166335 183.303 
L 814.37381 183.303 
z
" clip-path="url(#pee34e30e81)" style="fill: #efefef"/>
   </g>
   <g id="patch_76">
    <path d="M 814.37381 189.297 
L 879.166335 189.297 
L 879.166335 233.253 
L 814.37381 233.253 
z
" clip-path="url(#pee34e30e81)" style="fill: #efefef"/>
   </g>
   <g id="patch_77">
    <path d="M 814.37381 239.247 
L 879.166335 239.247 
L 879.166335 283.203 
L 814.37381 283.203 
z
" clip-path="url(#pee34e30e81)" style="fill: #efefef"/>
   </g>
   <g id="patch_78">
    <path d="M 814.37381 289.197 
L 879.166335 289.197 
L 879.166335 333.153 
L 814.37381 333.153 
z
" clip-path="url(#pee34e30e81)" style="fill: #efefef"/>
   </g>
   <g id="patch_79">
    <path d="M 814.37381 339.147 
L 879.166335 339.147 
L 879.166335 383.103 
L 814.37381 383.103 
z
" clip-path="url(#pee34e30e81)" style="fill: #efefef"/>
   </g>
   <g id="patch_80">
    <path d="M 814.37381 389.097 
L 879.166335 389.097 
L 879.166335 433.053 
L 814.37381 433.053 
z
" clip-path="url(#pee34e30e81)" style="fill: #6cc3ab"/>
   </g>
   <g id="patch_81">
    <path d="M 814.37381 439.047 
L 879.166335 439.047 
L 879.166335 483.003 
L 814.37381 483.003 
z
" clip-path="url(#pee34e30e81)" style="fill: #efefef"/>
   </g>
   <g id="patch_82">
    <path d="M 883.302028 89.397 
L 948.094553 89.397 
L 948.094553 133.353 
L 883.302028 133.353 
z
" clip-path="url(#pee34e30e81)" style="fill: #efefef"/>
   </g>
   <g id="patch_83">
    <path d="M 883.302028 139.347 
L 948.094553 139.347 
L 948.094553 183.303 
L 883.302028 183.303 
z
" clip-path="url(#pee34e30e81)" style="fill: #efefef"/>
   </g>
   <g id="patch_84">
    <path d="M 883.302028 189.297 
L 948.094553 189.297 
L 948.094553 233.253 
L 883.302028 233.253 
z
" clip-path="url(#pee34e30e81)" style="fill: #efefef"/>
   </g>
   <g id="patch_85">
    <path d="M 883.302028 239.247 
L 948.094553 239.247 
L 948.094553 283.203 
L 883.302028 283.203 
z
" clip-path="url(#pee34e30e81)" style="fill: #efefef"/>
   </g>
   <g id="patch_86">
    <path d="M 883.302028 289.197 
L 948.094553 289.197 
L 948.094553 333.153 
L 883.302028 333.153 
z
" clip-path="url(#pee34e30e81)" style="fill: #efefef"/>
   </g>
   <g id="patch_87">
    <path d="M 883.302028 339.147 
L 948.094553 339.147 
L 948.094553 383.103 
L 883.302028 383.103 
z
" clip-path="url(#pee34e30e81)" style="fill: #efefef"/>
   </g>
   <g id="patch_88">
    <path d="M 883.302028 389.097 
L 948.094553 389.097 
L 948.094553 433.053 
L 883.302028 433.053 
z
" clip-path="url(#pee34e30e81)" style="fill: #efefef"/>
   </g>
   <g id="patch_89">
    <path d="M 883.302028 439.047 
L 948.094553 439.047 
L 948.094553 483.003 
L 883.302028 483.003 
z
" clip-path="url(#pee34e30e81)" style="fill: #efefef"/>
   </g>
   <g id="text_1">
    <text style="font-weight: 700; font-size: 10.5px; font-family: 'Arial'" transform="translate(207.747437 65.981112)">Eligible</text>
    <text style="font-weight: 700; font-size: 10.5px; font-family: 'Arial'" transform="translate(199.59189 77.409296)">population</text>
   </g>
   <g id="text_2">
    <text style="font-weight: 700; font-size: 12px; font-family: 'Arial'; text-anchor: middle; fill: #222222" x="226.416109" y="114.480469" transform="rotate(-0 226.416109 114.480469)">71%</text>
   </g>
   <g id="text_3">
    <text style="font-size: 12px; font-family: 'Arial'; text-anchor: middle; fill: #222222" x="226.416109" y="164.430469" transform="rotate(-0 226.416109 164.430469)">75%</text>
   </g>
   <g id="text_4">
    <text style="font-size: 12px; font-family: 'Arial'; text-anchor: middle; fill: #222222" x="226.416109" y="214.380469" transform="rotate(-0 226.416109 214.380469)">71%</text>
   </g>
   <g id="text_5">
    <text style="font-size: 12px; font-family: 'Arial'; text-anchor: middle; fill: #222222" x="226.416109" y="264.330469" transform="rotate(-0 226.416109 264.330469)">71%</text>
   </g>
   <g id="text_6">
    <text style="font-size: 12px; font-family: 'Arial'; text-anchor: middle; fill: #222222" x="226.416109" y="314.280469" transform="rotate(-0 226.416109 314.280469)">71%</text>
   </g>
   <g id="text_7">
    <text style="font-size: 12px; font-family: 'Arial'; text-anchor: middle; fill: #222222" x="226.416109" y="364.230469" transform="rotate(-0 226.416109 364.230469)">71%</text>
   </g>
   <g id="text_8">
    <text style="font-size: 12px; font-family: 'Arial'; text-anchor: middle; fill: #222222" x="226.416109" y="414.180469" transform="rotate(-0 226.416109 414.180469)">71%</text>
   </g>
   <g id="text_9">
    <text style="font-size: 12px; font-family: 'Arial'; text-anchor: middle; fill: #222222" x="226.416109" y="464.130469" transform="rotate(-0 226.416109 464.130469)">71%</text>
   </g>
   <g id="text_10">
    <text style="font-weight: 700; font-size: 10.5px; font-family: 'Arial'" transform="translate(262.079835 65.981112)">Screened per</text>
    <text style="font-weight: 700; font-size: 10.5px; font-family: 'Arial'" transform="translate(258.592687 77.409091)">eligible patient</text>
   </g>
   <g id="text_11">
    <text style="font-weight: 700; font-size: 12px; font-family: 'Arial'; text-anchor: middle; fill: #222222" x="295.344327" y="114.480469" transform="rotate(-0 295.344327 114.480469)">1.40</text>
   </g>
   <g id="text_12">
    <text style="font-size: 12px; font-family: 'Arial'; text-anchor: middle; fill: #222222" x="295.344327" y="164.430469" transform="rotate(-0 295.344327 164.430469)">1.32</text>
   </g>
   <g id="text_13">
    <text style="font-size: 12px; font-family: 'Arial'; text-anchor: middle; fill: #222222" x="295.344327" y="214.380469" transform="rotate(-0 295.344327 214.380469)">1.40</text>
   </g>
   <g id="text_14">
    <text style="font-size: 12px; font-family: 'Arial'; text-anchor: middle; fill: #222222" x="295.344327" y="264.330469" transform="rotate(-0 295.344327 264.330469)">1.40</text>
   </g>
   <g id="text_15">
    <text style="font-size: 12px; font-family: 'Arial'; text-anchor: middle; fill: #222222" x="295.344327" y="314.280469" transform="rotate(-0 295.344327 314.280469)">1.40</text>
   </g>
   <g id="text_16">
    <text style="font-size: 12px; font-family: 'Arial'; text-anchor: middle; fill: #222222" x="295.344327" y="364.230469" transform="rotate(-0 295.344327 364.230469)">1.58</text>
   </g>
   <g id="text_17">
    <text style="font-size: 12px; font-family: 'Arial'; text-anchor: middle; fill: #222222" x="295.344327" y="414.180469" transform="rotate(-0 295.344327 414.180469)">1.40</text>
   </g>
   <g id="text_18">
    <text style="font-size: 12px; font-family: 'Arial'; text-anchor: middle; fill: #222222" x="295.344327" y="464.130469" transform="rotate(-0 295.344327 464.130469)">1.40</text>
   </g>
   <g id="text_19">
    <text style="font-weight: 700; font-size: 10.5px; font-family: 'Arial'" transform="translate(339.198874 65.981317)">Months to</text>
    <text style="font-weight: 700; font-size: 10.5px; font-family: 'Arial'" transform="translate(347.933561 77.409296)">recruit</text>
   </g>
   <g id="text_20">
    <text style="font-weight: 700; font-size: 12px; font-family: 'Arial'; text-anchor: middle; fill: #222222" x="364.272545" y="114.480469" transform="rotate(-0 364.272545 114.480469)">72</text>
   </g>
   <g id="text_21">
    <text style="font-size: 12px; font-family: 'Arial'; text-anchor: middle; fill: #222222" x="364.272545" y="164.430469" transform="rotate(-0 364.272545 164.430469)">68</text>
   </g>
   <g id="text_22">
    <text style="font-size: 12px; font-family: 'Arial'; text-anchor: middle; fill: #222222" x="364.272545" y="214.380469" transform="rotate(-0 364.272545 214.380469)">66</text>
   </g>
   <g id="text_23">
    <text style="font-size: 12px; font-family: 'Arial'; text-anchor: middle; fill: #222222" x="364.272545" y="264.330469" transform="rotate(-0 364.272545 264.330469)">72</text>
   </g>
   <g id="text_24">
    <text style="font-size: 12px; font-family: 'Arial'; text-anchor: middle; fill: #222222" x="364.272545" y="314.280469" transform="rotate(-0 364.272545 314.280469)">72</text>
   </g>
   <g id="text_25">
    <text style="font-size: 12px; font-family: 'Arial'; text-anchor: middle; fill: #222222" x="364.272545" y="364.230469" transform="rotate(-0 364.272545 364.230469)">81</text>
   </g>
   <g id="text_26">
    <text style="font-size: 12px; font-family: 'Arial'; text-anchor: middle; fill: #222222" x="364.272545" y="414.180469" transform="rotate(-0 364.272545 414.180469)">79</text>
   </g>
   <g id="text_27">
    <text style="font-size: 12px; font-family: 'Arial'; text-anchor: middle; fill: #222222" x="364.272545" y="464.130469" transform="rotate(-0 364.272545 464.130469)">72</text>
   </g>
   <g id="text_28">
    <text style="font-weight: 700; font-size: 10.5px; font-family: 'Arial'" transform="translate(411.611779 65.980907)">P(recruit</text>
    <text style="font-weight: 700; font-size: 10.5px; font-family: 'Arial'" transform="translate(406.083693 77.409091)">in window)</text>
   </g>
   <g id="text_29">
    <text style="font-weight: 700; font-size: 12px; font-family: 'Arial'; text-anchor: middle; fill: #222222" x="433.200764" y="114.480469" transform="rotate(-0 433.200764 114.480469)">8%</text>
   </g>
   <g id="text_30">
    <text style="font-size: 12px; font-family: 'Arial'; text-anchor: middle; fill: #222222" x="433.200764" y="164.430469" transform="rotate(-0 433.200764 164.430469)">9%</text>
   </g>
   <g id="text_31">
    <text style="font-size: 12px; font-family: 'Arial'; text-anchor: middle; fill: #222222" x="433.200764" y="214.380469" transform="rotate(-0 433.200764 214.380469)">9%</text>
   </g>
   <g id="text_32">
    <text style="font-size: 12px; font-family: 'Arial'; text-anchor: middle; fill: #222222" x="433.200764" y="264.330469" transform="rotate(-0 433.200764 264.330469)">15%</text>
   </g>
   <g id="text_33">
    <text style="font-size: 12px; font-family: 'Arial'; text-anchor: middle; fill: #222222" x="433.200764" y="314.280469" transform="rotate(-0 433.200764 314.280469)">8%</text>
   </g>
   <g id="text_34">
    <text style="font-size: 12px; font-family: 'Arial'; text-anchor: middle; fill: #222222" x="433.200764" y="364.230469" transform="rotate(-0 433.200764 364.230469)">7%</text>
   </g>
   <g id="text_35">
    <text style="font-size: 12px; font-family: 'Arial'; text-anchor: middle; fill: #222222" x="433.200764" y="414.180469" transform="rotate(-0 433.200764 414.180469)">7%</text>
   </g>
   <g id="text_36">
    <text style="font-size: 12px; font-family: 'Arial'; text-anchor: middle; fill: #222222" x="433.200764" y="464.130469" transform="rotate(-0 433.200764 464.130469)">8%</text>
   </g>
   <g id="text_37">
    <text style="font-weight: 700; font-size: 10.5px; font-family: 'Arial'; text-anchor: middle" x="502.128982" y="78.196283" transform="rotate(-0 502.128982 78.196283)">Women</text>
   </g>
   <g id="text_38">
    <text style="font-weight: 700; font-size: 12px; font-family: 'Arial'; text-anchor: middle; fill: #222222" x="502.128982" y="114.480469" transform="rotate(-0 502.128982 114.480469)">56%</text>
   </g>
   <g id="text_39">
    <text style="font-size: 12px; font-family: 'Arial'; text-anchor: middle; fill: #222222" x="502.128982" y="164.430469" transform="rotate(-0 502.128982 164.430469)">56%</text>
   </g>
   <g id="text_40">
    <text style="font-size: 12px; font-family: 'Arial'; text-anchor: middle; fill: #222222" x="502.128982" y="214.380469" transform="rotate(-0 502.128982 214.380469)">56%</text>
   </g>
   <g id="text_41">
    <text style="font-size: 12px; font-family: 'Arial'; text-anchor: middle; fill: #222222" x="502.128982" y="264.330469" transform="rotate(-0 502.128982 264.330469)">56%</text>
   </g>
   <g id="text_42">
    <text style="font-size: 12px; font-family: 'Arial'; text-anchor: middle; fill: #222222" x="502.128982" y="314.280469" transform="rotate(-0 502.128982 314.280469)">56%</text>
   </g>
   <g id="text_43">
    <text style="font-size: 12px; font-family: 'Arial'; text-anchor: middle; fill: #222222" x="502.128982" y="364.230469" transform="rotate(-0 502.128982 364.230469)">50%</text>
   </g>
   <g id="text_44">
    <text style="font-size: 12px; font-family: 'Arial'; text-anchor: middle; fill: #222222" x="502.128982" y="414.180469" transform="rotate(-0 502.128982 414.180469)">56%</text>
   </g>
   <g id="text_45">
    <text style="font-size: 12px; font-family: 'Arial'; text-anchor: middle; fill: #222222" x="502.128982" y="464.130469" transform="rotate(-0 502.128982 464.130469)">56%</text>
   </g>
   <g id="text_46">
    <text style="font-weight: 700; font-size: 10.5px; font-family: 'Arial'; text-anchor: middle" x="571.0572" y="78.196078" transform="rotate(-0 571.0572 78.196078)">Age ≥65</text>
   </g>
   <g id="text_47">
    <text style="font-weight: 700; font-size: 12px; font-family: 'Arial'; text-anchor: middle; fill: #222222" x="571.0572" y="114.480469" transform="rotate(-0 571.0572 114.480469)">35%</text>
   </g>
   <g id="text_48">
    <text style="font-size: 12px; font-family: 'Arial'; text-anchor: middle; fill: #222222" x="571.0572" y="164.430469" transform="rotate(-0 571.0572 164.430469)">36%</text>
   </g>
   <g id="text_49">
    <text style="font-size: 12px; font-family: 'Arial'; text-anchor: middle; fill: #222222" x="571.0572" y="214.380469" transform="rotate(-0 571.0572 214.380469)">35%</text>
   </g>
   <g id="text_50">
    <text style="font-size: 12px; font-family: 'Arial'; text-anchor: middle; fill: #222222" x="571.0572" y="264.330469" transform="rotate(-0 571.0572 264.330469)">35%</text>
   </g>
   <g id="text_51">
    <text style="font-size: 12px; font-family: 'Arial'; text-anchor: middle; fill: #222222" x="571.0572" y="314.280469" transform="rotate(-0 571.0572 314.280469)">35%</text>
   </g>
   <g id="text_52">
    <text style="font-size: 12px; font-family: 'Arial'; text-anchor: middle; fill: #222222" x="571.0572" y="364.230469" transform="rotate(-0 571.0572 364.230469)">35%</text>
   </g>
   <g id="text_53">
    <text style="font-size: 12px; font-family: 'Arial'; text-anchor: middle; fill: #222222" x="571.0572" y="414.180469" transform="rotate(-0 571.0572 414.180469)">35%</text>
   </g>
   <g id="text_54">
    <text style="font-size: 12px; font-family: 'Arial'; text-anchor: middle; fill: #222222" x="571.0572" y="464.130469" transform="rotate(-0 571.0572 464.130469)">35%</text>
   </g>
   <g id="text_55">
    <text style="font-weight: 700; font-size: 10.5px; font-family: 'Arial'; text-anchor: middle" x="639.985418" y="78.196283" transform="rotate(-0 639.985418 78.196283)">Withdrawal</text>
   </g>
   <g id="text_56">
    <text style="font-weight: 700; font-size: 12px; font-family: 'Arial'; text-anchor: middle; fill: #222222" x="639.985418" y="114.480469" transform="rotate(-0 639.985418 114.480469)">6.9%</text>
   </g>
   <g id="text_57">
    <text style="font-size: 12px; font-family: 'Arial'; text-anchor: middle; fill: #222222" x="639.985418" y="164.430469" transform="rotate(-0 639.985418 164.430469)">6.9%</text>
   </g>
   <g id="text_58">
    <text style="font-size: 12px; font-family: 'Arial'; text-anchor: middle; fill: #222222" x="639.985418" y="214.380469" transform="rotate(-0 639.985418 214.380469)">6.9%</text>
   </g>
   <g id="text_59">
    <text style="font-size: 12px; font-family: 'Arial'; text-anchor: middle; fill: #222222" x="639.985418" y="264.330469" transform="rotate(-0 639.985418 264.330469)">6.9%</text>
   </g>
   <g id="text_60">
    <text style="font-size: 12px; font-family: 'Arial'; text-anchor: middle; fill: #222222" x="639.985418" y="314.280469" transform="rotate(-0 639.985418 314.280469)">6.9%</text>
   </g>
   <g id="text_61">
    <text style="font-size: 12px; font-family: 'Arial'; text-anchor: middle; fill: #222222" x="639.985418" y="364.230469" transform="rotate(-0 639.985418 364.230469)">6.9%</text>
   </g>
   <g id="text_62">
    <text style="font-size: 12px; font-family: 'Arial'; text-anchor: middle; fill: #222222" x="639.985418" y="414.180469" transform="rotate(-0 639.985418 414.180469)">6.9%</text>
   </g>
   <g id="text_63">
    <text style="font-size: 12px; font-family: 'Arial'; text-anchor: middle; fill: #222222" x="639.985418" y="464.130469" transform="rotate(-0 639.985418 464.130469)">6.9%</text>
   </g>
   <g id="text_64">
    <text style="font-weight: 700; font-size: 10.5px; font-family: 'Arial'" transform="translate(676.536722 65.981317)">Patients with</text>
    <text style="font-weight: 700; font-size: 10.5px; font-family: 'Arial'" transform="translate(681.682543 77.409296)">serious AE</text>
   </g>
   <g id="text_65">
    <text style="font-weight: 700; font-size: 12px; font-family: 'Arial'; text-anchor: middle; fill: #222222" x="708.913636" y="114.480469" transform="rotate(-0 708.913636 114.480469)">146</text>
   </g>
   <g id="text_66">
    <text style="font-size: 12px; font-family: 'Arial'; text-anchor: middle; fill: #222222" x="708.913636" y="164.430469" transform="rotate(-0 708.913636 164.430469)">146</text>
   </g>
   <g id="text_67">
    <text style="font-size: 12px; font-family: 'Arial'; text-anchor: middle; fill: #222222" x="708.913636" y="214.380469" transform="rotate(-0 708.913636 214.380469)">146</text>
   </g>
   <g id="text_68">
    <text style="font-size: 12px; font-family: 'Arial'; text-anchor: middle; fill: #222222" x="708.913636" y="264.330469" transform="rotate(-0 708.913636 264.330469)">146</text>
   </g>
   <g id="text_69">
    <text style="font-size: 12px; font-family: 'Arial'; text-anchor: middle; fill: #222222" x="708.913636" y="314.280469" transform="rotate(-0 708.913636 314.280469)">146</text>
   </g>
   <g id="text_70">
    <text style="font-size: 12px; font-family: 'Arial'; text-anchor: middle; fill: #222222" x="708.913636" y="364.230469" transform="rotate(-0 708.913636 364.230469)">146</text>
   </g>
   <g id="text_71">
    <text style="font-size: 12px; font-family: 'Arial'; text-anchor: middle; fill: #222222" x="708.913636" y="414.180469" transform="rotate(-0 708.913636 414.180469)">160</text>
   </g>
   <g id="text_72">
    <text style="font-size: 12px; font-family: 'Arial'; text-anchor: middle; fill: #222222" x="708.913636" y="464.130469" transform="rotate(-0 708.913636 464.130469)">146</text>
   </g>
   <g id="text_73">
    <text style="font-weight: 700; font-size: 10.5px; font-family: 'Arial'" transform="translate(753.426894 65.981112)">Visit days</text>
    <text style="font-weight: 700; font-size: 10.5px; font-family: 'Arial'" transform="translate(751.006972 77.409296)">per patient</text>
   </g>
   <g id="text_74">
    <text style="font-weight: 700; font-size: 12px; font-family: 'Arial'; text-anchor: middle; fill: #222222" x="777.841855" y="114.480469" transform="rotate(-0 777.841855 114.480469)">23</text>
   </g>
   <g id="text_75">
    <text style="font-size: 12px; font-family: 'Arial'; text-anchor: middle; fill: #222222" x="777.841855" y="164.430469" transform="rotate(-0 777.841855 164.430469)">23</text>
   </g>
   <g id="text_76">
    <text style="font-size: 12px; font-family: 'Arial'; text-anchor: middle; fill: #222222" x="777.841855" y="214.380469" transform="rotate(-0 777.841855 214.380469)">23</text>
   </g>
   <g id="text_77">
    <text style="font-size: 12px; font-family: 'Arial'; text-anchor: middle; fill: #222222" x="777.841855" y="264.330469" transform="rotate(-0 777.841855 264.330469)">23</text>
   </g>
   <g id="text_78">
    <text style="font-size: 12px; font-family: 'Arial'; text-anchor: middle; fill: #222222" x="777.841855" y="314.280469" transform="rotate(-0 777.841855 314.280469)">23</text>
   </g>
   <g id="text_79">
    <text style="font-size: 12px; font-family: 'Arial'; text-anchor: middle; fill: #222222" x="777.841855" y="364.230469" transform="rotate(-0 777.841855 364.230469)">23</text>
   </g>
   <g id="text_80">
    <text style="font-size: 12px; font-family: 'Arial'; text-anchor: middle; fill: #222222" x="777.841855" y="414.180469" transform="rotate(-0 777.841855 414.180469)">23</text>
   </g>
   <g id="text_81">
    <text style="font-size: 12px; font-family: 'Arial'; text-anchor: middle; fill: #222222" x="777.841855" y="464.130469" transform="rotate(-0 777.841855 464.130469)">22</text>
   </g>
   <g id="text_82">
    <text style="font-weight: 700; font-size: 10.5px; font-family: 'Arial'" transform="translate(822.259956 65.981112)">Evaluable</text>
    <text style="font-weight: 700; font-size: 10.5px; font-family: 'Arial'" transform="translate(826.360698 77.409091)">Ctrough</text>
   </g>
   <g id="text_83">
    <text style="font-weight: 700; font-size: 12px; font-family: 'Arial'; text-anchor: middle; fill: #222222" x="846.770073" y="114.480469" transform="rotate(-0 846.770073 114.480469)">272</text>
   </g>
   <g id="text_84">
    <text style="font-size: 12px; font-family: 'Arial'; text-anchor: middle; fill: #222222" x="846.770073" y="164.430469" transform="rotate(-0 846.770073 164.430469)">272</text>
   </g>
   <g id="text_85">
    <text style="font-size: 12px; font-family: 'Arial'; text-anchor: middle; fill: #222222" x="846.770073" y="214.380469" transform="rotate(-0 846.770073 214.380469)">272</text>
   </g>
   <g id="text_86">
    <text style="font-size: 12px; font-family: 'Arial'; text-anchor: middle; fill: #222222" x="846.770073" y="264.330469" transform="rotate(-0 846.770073 264.330469)">272</text>
   </g>
   <g id="text_87">
    <text style="font-size: 12px; font-family: 'Arial'; text-anchor: middle; fill: #222222" x="846.770073" y="314.280469" transform="rotate(-0 846.770073 314.280469)">272</text>
   </g>
   <g id="text_88">
    <text style="font-size: 12px; font-family: 'Arial'; text-anchor: middle; fill: #222222" x="846.770073" y="364.230469" transform="rotate(-0 846.770073 364.230469)">272</text>
   </g>
   <g id="text_89">
    <text style="font-size: 12px; font-family: 'Arial'; text-anchor: middle; fill: #222222" x="846.770073" y="414.180469" transform="rotate(-0 846.770073 414.180469)">299</text>
   </g>
   <g id="text_90">
    <text style="font-size: 12px; font-family: 'Arial'; text-anchor: middle; fill: #222222" x="846.770073" y="464.130469" transform="rotate(-0 846.770073 464.130469)">274</text>
   </g>
   <g id="text_91">
    <text style="font-weight: 700; font-size: 10.5px; font-family: 'Arial'" transform="translate(879.23458 65.980907)">P(meeting trial</text>
    <text style="font-weight: 700; font-size: 10.5px; font-family: 'Arial'" transform="translate(888.274424 77.409091)">objectives)</text>
   </g>
   <g id="text_92">
    <text style="font-weight: 700; font-size: 12px; font-family: 'Arial'; text-anchor: middle; fill: #222222" x="915.698291" y="114.480469" transform="rotate(-0 915.698291 114.480469)">99%</text>
   </g>
   <g id="text_93">
    <text style="font-size: 12px; font-family: 'Arial'; text-anchor: middle; fill: #222222" x="915.698291" y="164.430469" transform="rotate(-0 915.698291 164.430469)">99%</text>
   </g>
   <g id="text_94">
    <text style="font-size: 12px; font-family: 'Arial'; text-anchor: middle; fill: #222222" x="915.698291" y="214.380469" transform="rotate(-0 915.698291 214.380469)">99%</text>
   </g>
   <g id="text_95">
    <text style="font-size: 12px; font-family: 'Arial'; text-anchor: middle; fill: #222222" x="915.698291" y="264.330469" transform="rotate(-0 915.698291 264.330469)">100%</text>
   </g>
   <g id="text_96">
    <text style="font-size: 12px; font-family: 'Arial'; text-anchor: middle; fill: #222222" x="915.698291" y="314.280469" transform="rotate(-0 915.698291 314.280469)">99%</text>
   </g>
   <g id="text_97">
    <text style="font-size: 12px; font-family: 'Arial'; text-anchor: middle; fill: #222222" x="915.698291" y="364.230469" transform="rotate(-0 915.698291 364.230469)">100%</text>
   </g>
   <g id="text_98">
    <text style="font-size: 12px; font-family: 'Arial'; text-anchor: middle; fill: #222222" x="915.698291" y="414.180469" transform="rotate(-0 915.698291 414.180469)">100%</text>
   </g>
   <g id="text_99">
    <text style="font-size: 12px; font-family: 'Arial'; text-anchor: middle; fill: #222222" x="915.698291" y="464.130469" transform="rotate(-0 915.698291 464.130469)">100%</text>
   </g>
  </g>
  <g id="text_100">
   <text style="font-weight: 700; font-size: 19px; font-family: 'Arial'; text-anchor: start; fill: #222222" x="38.3904" y="34.616807" transform="rotate(-0 38.3904 34.616807)">Protocol changes create measurable feasibility trade-offs</text>
  </g>
  <g id="text_101">
   <text style="font-weight: 700; font-size: 12px; font-family: 'Arial'; text-anchor: end; fill: #222222" x="187.1532" y="114.480352" transform="rotate(-0 187.1532 114.480352)">Original protocol</text>
  </g>
  <g id="text_102">
   <text style="font-size: 12px; font-family: 'Arial'; text-anchor: end; fill: #cc79a7" x="187.1532" y="164.433867" transform="rotate(-0 187.1532 164.433867)">Relax: ECOG performance status</text>
  </g>
  <g id="text_103">
   <text style="font-size: 12px; font-family: 'Arial'; text-anchor: end; fill: #cc79a7" x="187.1532" y="214.380469" transform="rotate(-0 187.1532 214.380469)">20% more sites</text>
  </g>
  <g id="text_104">
   <text style="font-size: 12px; font-family: 'Arial'; text-anchor: end; fill: #cc79a7" x="187.1532" y="264.330469" transform="rotate(-0 187.1532 264.330469)">Recruitment window +6 months</text>
  </g>
  <g id="text_105">
   <text style="font-size: 12px; font-family: 'Arial'; text-anchor: end; fill: #cc79a7" x="187.1532" y="314.280352" transform="rotate(-0 187.1532 314.280352)">Regional mix: +20 points East Asia</text>
  </g>
  <g id="text_106">
   <text style="font-size: 12px; font-family: 'Arial'; text-anchor: end; fill: #cc79a7" x="187.1532" y="364.230352" transform="rotate(-0 187.1532 364.230352)">50% female target</text>
  </g>
  <g id="text_107">
   <text style="font-size: 12px; font-family: 'Arial'; text-anchor: end; fill: #cc79a7" x="187.1532" y="414.180469" transform="rotate(-0 187.1532 414.180469)">Enrolment +10%</text>
  </g>
  <g id="text_108">
   <text style="font-size: 12px; font-family: 'Arial'; text-anchor: end; fill: #cc79a7" x="187.1532" y="464.133867" transform="rotate(-0 187.1532 464.133867)">One fewer follow-up visit</text>
  </g>
  <g id="legend_1">
   <g id="text_109">
    <text style="font-size: 11px; font-family: 'Arial'; text-anchor: start" x="274.901016" y="509.464922" transform="rotate(-0 274.901016 509.464922)">Cell colour: change compared with the original protocol (shade = size of the change)</text>
   </g>
   <g id="patch_90">
    <path d="M 90.430078 527.110078 
L 107.230078 527.110078 
L 107.230078 517.030078 
L 90.430078 517.030078 
z
" style="fill: #009e73"/>
   </g>
   <g id="text_110">
    <text style="font-size: 10.5px; font-family: 'Arial'; text-anchor: start" x="115.630078" y="525.640078" transform="rotate(-0 115.630078 525.640078)">Much more favourable</text>
   </g>
   <g id="patch_91">
    <path d="M 234.788672 527.110078 
L 251.588672 527.110078 
L 251.588672 517.030078 
L 234.788672 517.030078 
z
" style="fill: #8fcfbd"/>
   </g>
   <g id="text_111">
    <text style="font-size: 10.5px; font-family: 'Arial'; text-anchor: start" x="259.988672" y="525.640078" transform="rotate(-0 259.988672 525.640078)">Slightly more favourable</text>
   </g>
   <g id="patch_92">
    <path d="M 387.320859 527.110078 
L 404.120859 527.110078 
L 404.120859 517.030078 
L 387.320859 517.030078 
z
" style="fill: #efefef"/>
   </g>
   <g id="text_112">
    <text style="font-size: 10.5px; font-family: 'Arial'; text-anchor: start" x="412.520859" y="525.640078" transform="rotate(-0 412.520859 525.640078)">Unchanged (within 3%) or descriptive</text>
   </g>
   <g id="patch_93">
    <path d="M 601.127109 527.110078 
L 617.927109 527.110078 
L 617.927109 517.030078 
L 601.127109 517.030078 
z
" style="fill: #ebcf8f"/>
   </g>
   <g id="text_113">
    <text style="font-size: 10.5px; font-family: 'Arial'; text-anchor: start" x="626.327109" y="525.640078" transform="rotate(-0 626.327109 525.640078)">Slightly greater burden</text>
   </g>
   <g id="patch_94">
    <path d="M 746.665313 527.110078 
L 763.465312 527.110078 
L 763.465312 517.030078 
L 746.665313 517.030078 
z
" style="fill: #e69f00"/>
   </g>
   <g id="text_114">
    <text style="font-size: 10.5px; font-family: 'Arial'; text-anchor: start" x="771.865313" y="525.640078" transform="rotate(-0 771.865313 525.640078)">Much greater burden</text>
   </g>
  </g>
 </g>
 <defs>
  <clipPath id="pee34e30e81">
   <rect x="191.952" y="86.4" width="758.2104" height="399.6"/>
  </clipPath>
 </defs>
</svg>
